<svg width="576" height="576" viewBox="0 0 576 576" fill="none" xmlns="http://www.w3.org/2000/svg">
<path d="M207.454 95.8586C201.242 85.1613 187.526 81.51 176.817 87.703L141.416 108.177C130.71 114.369 127.065 128.06 133.276 138.755C138.662 148.03 136.613 159.73 129.137 167.413C61.1065 237.323 44.8147 346.373 96.1906 434.844C158.14 541.523 295.016 577.886 401.912 516.063C508.808 454.239 545.245 317.641 483.296 210.962C431.924 122.498 329.027 82.3875 234.429 106.524C224.031 109.177 212.84 105.134 207.454 95.8586Z" fill="#6D9BF5"/>
<ellipse cx="61.92" cy="109.009" rx="61.92" ry="109.009" transform="matrix(0.601998 -0.798498 0.799672 0.600438 251.043 188.484)" fill="white" fill-opacity="0.13"/>
<path fill-rule="evenodd" clip-rule="evenodd" d="M138.564 86.1856C153.515 83.2247 163.23 68.7288 160.264 53.8081C157.297 38.8874 142.771 29.192 127.82 32.1529C112.869 35.1138 103.154 49.6097 106.121 64.5304C109.088 79.4511 123.613 89.1465 138.564 86.1856ZM140.247 94.6485C159.882 90.7601 172.64 71.7234 168.744 52.1287C164.847 32.534 145.772 19.8015 126.137 23.6899C106.503 27.5783 93.7445 46.6151 97.6408 66.2098C101.537 85.8045 120.613 98.5369 140.247 94.6485Z" fill="#FFC700"/>
<path d="M133.039 149.808L105.252 104.503C125.41 79.5054 169.657 59.8082 189.261 53.0843L210.038 85.4561L212.321 96.9388L205.515 102.634L191.239 95.6578L190.955 111.4L177.28 121.61L159.52 116.432L157.494 133.712L147.304 140.845L132.009 134.326L134.814 148.434L133.039 149.808Z" fill="#FFC700"/>
<path d="M128.216 321.417L121.557 267.228L100.069 269.858L97.7123 250.677L165.426 242.39L167.783 261.571L146.295 264.201L152.954 318.389L128.216 321.417ZM212.167 311.142L210.918 300.976L208.906 298.456L206.536 279.17C206.192 276.375 205.057 274.351 203.13 273.097C201.272 271.835 198.422 271.439 194.578 271.909C191.993 272.226 189.424 272.966 186.871 274.129C184.31 275.223 182.172 276.584 180.457 278.212L170.991 263.519C174.088 261.012 177.909 258.913 182.453 257.222C186.998 255.531 191.506 254.412 195.978 253.865C205.832 252.659 213.719 253.928 219.641 257.671C225.632 261.406 229.216 268.06 230.392 277.633L234.179 308.449L212.167 311.142ZM196.049 314.179C191.367 314.752 187.355 314.427 184.013 313.205C180.67 311.983 178.033 310.142 176.099 307.684C174.157 305.155 172.984 302.249 172.581 298.965C172.126 295.261 172.683 292.002 174.252 289.185C175.821 286.369 178.445 284.062 182.126 282.264C185.876 280.457 190.721 279.19 196.66 278.464L208.61 277.001L210.014 288.426L201.838 289.426C199.322 289.734 197.522 290.38 196.437 291.364C195.413 292.27 195 293.526 195.198 295.133C195.361 296.461 195.987 297.519 197.077 298.307C198.229 299.018 199.678 299.266 201.425 299.052C203.032 298.855 204.448 298.256 205.673 297.256C206.959 296.176 207.8 294.655 208.197 292.691L212.1 299.341C211.715 303.715 210.184 307.13 207.507 309.585C204.829 312.04 201.01 313.572 196.049 314.179ZM244.417 307.196L234.86 229.424L258.55 226.525L268.106 304.297L244.417 307.196ZM297.258 291.154L294.356 263.209L311.707 240.765L339.694 237.34L316.863 268.008L306.191 278.996L297.258 291.154ZM278.606 303.012L269.05 225.24L292.739 222.341L302.296 300.112L278.606 303.012ZM320.01 297.944L301.84 279.954L314.208 260.248L348.626 294.442L320.01 297.944ZM215.627 419.212C209.477 419.965 203.451 419.993 197.55 419.297C191.648 418.6 186.708 417.361 182.729 415.578L188.48 396.575C192.223 398.174 196.303 399.342 200.72 400.078C205.199 400.735 209.465 400.816 213.518 400.32C215.894 400.029 217.728 399.663 219.022 399.221C220.376 398.701 221.334 398.122 221.894 397.486C222.446 396.781 222.67 396.008 222.567 395.17C222.404 393.842 221.541 392.884 219.979 392.295C218.417 391.706 216.384 391.316 213.878 391.127C211.433 390.858 208.744 390.62 205.81 390.412C202.868 390.133 199.869 389.685 196.814 389.066C193.829 388.438 191.014 387.47 188.371 386.162C185.798 384.846 183.618 382.985 181.833 380.579C180.039 378.104 178.902 374.909 178.421 370.996C177.863 366.454 178.614 362.178 180.675 358.166C182.797 354.077 186.236 350.606 190.993 347.754C195.819 344.894 202.006 343.002 209.553 342.078C214.514 341.471 219.47 341.396 224.421 341.854C229.371 342.313 233.901 343.389 238.011 345.085L232.771 363.919C228.914 362.547 225.218 361.616 221.682 361.127C218.216 360.629 214.876 360.577 211.662 360.97C209.286 361.261 207.425 361.702 206.079 362.292C204.733 362.882 203.788 363.565 203.245 364.341C202.772 365.108 202.587 365.911 202.69 366.749C202.844 368.007 203.702 368.931 205.264 369.52C206.818 370.039 208.812 370.398 211.248 370.596C213.754 370.786 216.474 370.985 219.408 371.193C222.412 371.393 225.406 371.807 228.391 372.434C231.377 373.062 234.156 374.034 236.729 375.35C239.373 376.658 241.587 378.515 243.372 380.921C245.157 383.327 246.286 386.451 246.758 390.294C247.308 394.766 246.522 399.047 244.4 403.137C242.339 407.148 238.935 410.615 234.187 413.536C229.43 416.388 223.243 418.28 215.627 419.212ZM288.877 349.286C293.279 348.748 297.374 349.168 301.161 350.549C304.94 351.86 308.074 354.278 310.564 357.803C313.124 361.32 314.773 366.083 315.512 372.092L319.53 404.794L295.841 407.693L292.325 379.079C291.887 375.515 290.949 373.077 289.511 371.763C288.064 370.38 286.258 369.821 284.091 370.086C282.484 370.283 281.029 370.851 279.726 371.791C278.484 372.652 277.547 373.972 276.914 375.752C276.352 377.523 276.246 379.841 276.598 382.706L279.908 409.643L256.219 412.542L246.662 334.771L270.352 331.871L274.924 369.08L268.671 364.951C270.375 360.346 272.981 356.729 276.488 354.101C280.065 351.464 284.195 349.859 288.877 349.286ZM361.263 400.75C354.765 401.546 348.845 400.994 343.505 399.094C338.225 397.116 333.879 394.066 330.464 389.944C327.049 385.823 324.986 380.862 324.273 375.063C323.56 369.263 324.362 363.952 326.677 359.129C328.993 354.307 332.477 350.334 337.129 347.211C341.851 344.08 347.462 342.117 353.961 341.321C360.46 340.526 366.379 341.078 371.72 342.978C377.06 344.878 381.403 347.893 384.747 352.022C388.162 356.144 390.226 361.104 390.938 366.904C391.651 372.704 390.85 378.015 388.534 382.838C386.288 387.652 382.809 391.659 378.095 394.861C373.373 397.992 367.762 399.955 361.263 400.75ZM358.997 382.303C360.744 382.09 362.264 381.478 363.559 380.468C364.854 379.459 365.817 378.064 366.45 376.284C367.073 374.435 367.235 372.287 366.935 369.842C366.626 367.326 365.953 365.316 364.917 363.812C363.872 362.237 362.6 361.116 361.099 360.449C359.598 359.781 357.975 359.555 356.228 359.768C354.481 359.982 352.96 360.594 351.665 361.603C350.371 362.613 349.407 364.008 348.775 365.787C348.134 367.497 347.968 369.61 348.277 372.125C348.577 374.571 349.254 376.616 350.307 378.26C351.352 379.834 352.625 380.955 354.125 381.623C355.626 382.29 357.25 382.517 358.997 382.303ZM414.392 393.185L387.431 338.289L409.863 335.544L430.675 380.234L419.879 381.555L429.988 333.081L450.114 330.618L470.926 375.308L460.444 376.59L470.344 328.142L491.098 325.602L478.227 385.372L455.167 388.194L438.579 352.775L445.497 351.929L437.453 390.362L414.392 393.185Z" fill="white"/>
<path fill-rule="evenodd" clip-rule="evenodd" d="M349.442 156.575L303.322 162.219L307.026 192.359L353.145 186.715L349.442 156.575ZM318.907 168.735L320.519 181.853C320.52 181.867 320.522 181.881 320.524 181.894C320.528 181.922 320.533 181.949 320.534 181.976C320.537 182.053 320.563 182.095 320.652 182.072C320.673 182.067 320.695 182.065 320.717 182.063C320.727 182.062 320.738 182.061 320.749 182.06C321.131 182.013 321.513 181.967 321.895 181.92L321.898 181.92C322.662 181.827 323.426 181.733 324.19 181.639C324.214 181.636 324.235 181.634 324.254 181.631C324.328 181.623 324.364 181.619 324.379 181.6C324.393 181.582 324.388 181.55 324.379 181.489C324.376 181.468 324.373 181.444 324.369 181.416L322.756 168.283C322.754 168.273 322.753 168.262 322.751 168.252C322.748 168.232 322.745 168.211 322.744 168.19C322.743 168.112 322.71 168.075 322.624 168.095C322.607 168.099 322.589 168.101 322.571 168.102C322.562 168.103 322.553 168.104 322.543 168.105C322.158 168.152 321.772 168.199 321.386 168.246C320.614 168.34 319.841 168.434 319.07 168.53C319.047 168.533 319.027 168.535 319.009 168.537C318.945 168.544 318.913 168.547 318.9 168.564C318.886 168.581 318.89 168.613 318.899 168.675C318.901 168.692 318.904 168.712 318.907 168.735ZM338.043 166.208L332.305 166.911C330.393 167.145 328.481 167.379 326.571 167.611C326.556 167.613 326.542 167.614 326.528 167.616C326.499 167.62 326.471 167.624 326.442 167.627C326.377 167.631 326.358 167.664 326.369 167.72C326.373 167.738 326.374 167.754 326.376 167.771C326.377 167.78 326.378 167.789 326.379 167.798L326.765 170.938L326.769 170.971C326.777 171.038 326.781 171.071 326.8 171.086C326.818 171.1 326.851 171.095 326.917 171.087C326.93 171.085 326.945 171.083 326.961 171.081L330.565 170.64C330.683 170.625 330.742 170.618 330.774 170.643C330.805 170.667 330.812 170.721 330.825 170.828L332.015 180.512C332.017 180.531 332.019 180.547 332.02 180.562C332.026 180.617 332.029 180.646 332.046 180.66C332.064 180.675 332.099 180.67 332.172 180.661L332.208 180.656L335.667 180.233C335.776 180.22 335.829 180.213 335.853 180.184C335.875 180.155 335.869 180.105 335.857 180.006L334.667 170.322C334.666 170.31 334.664 170.299 334.663 170.289C334.662 170.281 334.661 170.273 334.66 170.266C334.651 170.206 334.647 170.175 334.661 170.157C334.676 170.137 334.712 170.133 334.789 170.124C334.804 170.123 334.82 170.121 334.837 170.119L338.506 169.67C338.664 169.65 338.664 169.65 338.648 169.5L338.264 166.375C338.261 166.353 338.259 166.334 338.257 166.317C338.25 166.249 338.246 166.215 338.227 166.201C338.207 166.186 338.173 166.191 338.105 166.2C338.087 166.203 338.066 166.206 338.043 166.208Z" fill="white"/>
<path d="M276.399 179.099C276.911 177.863 277.888 177.182 278.9 177.036C280.957 176.779 282.439 177.724 282.995 179.217C283.331 180.117 283.343 181.029 282.971 181.929C282.532 182.986 281.73 183.669 280.57 183.941C279.45 184.205 278.42 184.019 277.514 183.335C276.933 182.897 276.545 182.325 276.327 181.651C276.051 180.797 276.051 179.938 276.399 179.099Z" fill="white"/>
<path fill-rule="evenodd" clip-rule="evenodd" d="M290.744 163.758L244.625 169.402L248.329 199.542L294.448 193.898L305.174 177.289L290.744 163.758ZM266.598 179.774C266.675 179.82 266.752 179.866 266.83 179.912C266.874 179.879 266.899 179.838 266.922 179.799C266.927 179.79 266.933 179.781 266.938 179.772C267.153 179.457 267.366 179.14 267.579 178.823C268.008 178.191 268.434 177.56 268.86 176.927C268.945 176.8 268.936 176.748 268.811 176.669C268.712 176.605 268.612 176.544 268.511 176.482C267.646 175.96 266.72 175.583 265.704 175.424C265.025 175.318 264.342 175.298 263.655 175.337C262.759 175.388 261.881 175.524 261.031 175.824C258.056 176.873 256.072 179.578 256.187 182.721C256.218 183.568 256.389 184.391 256.713 185.179C257.449 186.962 258.73 188.241 260.602 188.957C261.622 189.348 262.692 189.488 263.793 189.438C264.725 189.397 265.633 189.231 266.511 188.925C267.996 188.409 269.263 187.579 270.346 186.48C270.432 186.393 270.462 186.312 270.447 186.191C270.261 184.712 270.079 183.231 269.898 181.751L269.761 180.639C269.759 180.62 269.755 180.6 269.751 180.581C269.743 180.538 269.734 180.495 269.742 180.454C269.751 180.407 269.722 180.384 269.693 180.361C269.67 180.343 269.647 180.324 269.646 180.293C269.647 180.241 269.61 180.238 269.568 180.243L263.126 181.032C263.119 181.032 263.111 181.034 263.104 181.035L263.088 181.037C263.063 181.041 263.037 181.045 263.012 181.046C262.947 181.047 262.929 181.081 262.941 181.137C262.946 181.161 262.949 181.186 262.951 181.21C262.952 181.222 262.953 181.234 262.954 181.246C262.994 181.571 263.034 181.896 263.074 182.221C263.153 182.87 263.233 183.52 263.314 184.17C263.317 184.197 263.319 184.22 263.321 184.24C263.327 184.299 263.33 184.33 263.348 184.344C263.366 184.358 263.401 184.354 263.473 184.344C263.491 184.342 263.511 184.339 263.534 184.336L266.082 184.024C266.104 184.022 266.124 184.019 266.142 184.017C266.213 184.007 266.247 184.003 266.265 184.017C266.282 184.031 266.285 184.061 266.292 184.119C266.294 184.14 266.296 184.164 266.3 184.192C266.319 184.334 266.335 184.474 266.352 184.615L266.353 184.617C266.361 184.687 266.369 184.757 266.378 184.827L266.379 184.832C266.414 185.122 266.415 185.125 266.156 185.284C265.398 185.751 264.562 185.96 263.672 185.962C262.684 185.965 261.851 185.62 261.186 184.927C260.753 184.476 260.482 183.94 260.331 183.346C260.141 182.587 260.147 181.834 260.426 181.09C260.763 180.196 261.354 179.511 262.276 179.117C262.923 178.841 263.607 178.809 264.296 178.867C264.921 178.919 265.486 179.139 266.019 179.437C266.214 179.545 266.405 179.659 266.598 179.774ZM284.281 174.761C282.619 173.636 280.754 173.231 278.903 173.444C278.05 173.55 277.42 173.694 276.764 173.946C274.86 174.677 273.453 175.917 272.638 177.722C271.802 179.574 271.816 181.449 272.636 183.279C273.553 185.324 275.14 186.701 277.408 187.298C279.15 187.755 280.881 187.633 282.562 186.984C284.516 186.232 285.924 184.924 286.722 183.055C287.395 181.479 287.43 179.873 286.909 178.264C286.441 176.818 285.571 175.637 284.281 174.761Z" fill="white"/>
<path d="M261.264 468.127C259.537 468.339 257.893 468.259 256.333 467.887C254.791 467.491 253.412 466.838 252.197 465.926C250.981 465.015 249.978 463.893 249.186 462.562C248.417 461.228 247.928 459.719 247.721 458.035C247.514 456.351 247.623 454.769 248.047 453.289C248.492 451.806 249.194 450.476 250.153 449.298C251.134 448.118 252.325 447.161 253.728 446.427C255.128 445.671 256.703 445.186 258.451 444.972C260.391 444.735 262.181 444.862 263.821 445.354C265.48 445.821 266.922 446.64 268.148 447.81L265.199 451.287C264.324 450.507 263.392 449.961 262.401 449.649C261.408 449.317 260.357 449.218 259.249 449.354C258.204 449.482 257.266 449.769 256.434 450.218C255.601 450.666 254.905 451.249 254.344 451.966C253.783 452.684 253.375 453.502 253.12 454.421C252.886 455.336 252.835 456.327 252.966 457.393C253.097 458.459 253.386 459.408 253.835 460.24C254.305 461.07 254.899 461.766 255.617 462.327C256.335 462.888 257.152 463.286 258.068 463.52C258.984 463.754 259.965 463.807 261.009 463.679C262.118 463.544 263.115 463.205 264.001 462.664C264.884 462.102 265.654 461.326 266.311 460.336L270.014 462.999C269.108 464.43 267.908 465.583 266.414 466.458C264.942 467.331 263.225 467.887 261.264 468.127ZM281.917 447.488C283.281 447.321 284.53 447.45 285.665 447.874C286.817 448.273 287.772 449.001 288.529 450.055C289.284 451.088 289.768 452.478 289.983 454.226L291.193 464.075L286.205 464.686L285.089 455.604C284.919 454.218 284.484 453.233 283.784 452.648C283.106 452.06 282.213 451.834 281.104 451.97C280.315 452.066 279.622 452.324 279.024 452.743C278.445 453.139 278.017 453.7 277.738 454.426C277.481 455.15 277.418 456.045 277.549 457.111L278.594 465.617L273.605 466.228L270.69 442.501L275.678 441.89L277.065 453.178L275.769 451.876C276.246 450.649 277.022 449.656 278.097 448.897C279.173 448.138 280.446 447.668 281.917 447.488ZM295.716 463.522L293.602 446.318L298.366 445.735L298.964 450.595L298.119 449.271C298.482 447.993 299.19 446.976 300.244 446.219C301.295 445.441 302.631 444.953 304.251 444.755L304.817 449.36C304.601 449.365 304.408 449.377 304.237 449.398C304.064 449.398 303.882 449.409 303.69 449.433C302.325 449.6 301.265 450.13 300.509 451.023C299.772 451.892 299.504 453.147 299.706 454.789L300.704 462.911L295.716 463.522ZM309.394 461.848L307.28 444.644L312.269 444.033L314.383 461.237L309.394 461.848ZM309.48 441.94C308.563 442.053 307.784 441.878 307.143 441.415C306.502 440.953 306.133 440.327 306.036 439.538C305.939 438.749 306.146 438.053 306.656 437.45C307.166 436.846 307.879 436.489 308.796 436.376C309.713 436.264 310.49 436.429 311.129 436.87C311.765 437.29 312.131 437.894 312.228 438.683C312.33 439.514 312.127 440.242 311.62 440.867C311.131 441.468 310.418 441.826 309.48 441.94ZM324.832 460.218C323.361 460.398 321.923 460.401 320.516 460.227C319.129 460.029 318.008 459.712 317.153 459.275L318.376 455.49C319.225 455.884 320.202 456.176 321.308 456.365C322.432 456.53 323.516 456.549 324.56 456.421C325.712 456.28 326.505 456.043 326.94 455.708C327.396 455.371 327.594 454.957 327.534 454.467C327.484 454.062 327.256 453.787 326.848 453.642C326.46 453.473 325.95 453.373 325.318 453.342C324.687 453.311 323.992 453.288 323.232 453.273C322.494 453.255 321.742 453.207 320.975 453.127C320.205 453.027 319.489 452.833 318.826 452.546C318.163 452.26 317.602 451.831 317.142 451.259C316.704 450.686 316.424 449.908 316.304 448.928C316.17 447.84 316.361 446.843 316.877 445.936C317.415 445.027 318.252 444.264 319.388 443.649C320.522 443.013 321.92 442.593 323.583 442.389C324.755 442.246 325.965 442.227 327.212 442.335C328.458 442.442 329.517 442.691 330.387 443.082L329.16 446.835C328.269 446.446 327.386 446.219 326.512 446.153C325.657 446.063 324.835 446.066 324.046 446.162C322.938 446.298 322.146 446.547 321.671 446.908C321.196 447.269 320.987 447.684 321.045 448.153C321.097 448.579 321.318 448.877 321.707 449.045C322.116 449.212 322.638 449.321 323.272 449.373C323.906 449.425 324.592 449.46 325.33 449.478C326.087 449.472 326.85 449.52 327.62 449.62C328.39 449.721 329.095 449.916 329.737 450.205C330.397 450.47 330.957 450.889 331.417 451.46C331.874 452.01 332.162 452.775 332.283 453.756C332.414 454.822 332.211 455.809 331.673 456.719C331.133 457.608 330.284 458.361 329.127 458.978C327.991 459.593 326.559 460.007 324.832 460.218ZM343.068 457.986C341.043 458.234 339.402 457.915 338.147 457.03C336.888 456.124 336.134 454.648 335.882 452.601L334.027 437.508L339.016 436.898L340.863 451.927C340.952 452.652 341.213 453.193 341.647 453.551C342.078 453.888 342.624 454.016 343.285 453.935C344.073 453.838 344.719 453.543 345.221 453.049L346.996 456.402C346.529 456.827 345.945 457.18 345.243 457.46C344.561 457.717 343.836 457.892 343.068 457.986ZM332.359 445.859L331.888 442.022L343.816 440.562L344.288 444.399L332.359 445.859ZM369.787 436.735C371.151 436.568 372.39 436.697 373.502 437.124C374.634 437.526 375.567 438.256 376.303 439.313C377.058 440.346 377.542 441.736 377.757 443.484L378.967 453.333L373.979 453.944L372.863 444.862C372.692 443.476 372.279 442.488 371.622 441.898C370.965 441.308 370.115 441.076 369.07 441.204C368.345 441.293 367.716 441.543 367.182 441.955C366.646 442.345 366.258 442.89 366.02 443.59C365.781 444.29 365.725 445.151 365.85 446.175L366.911 454.809L361.923 455.419L360.807 446.338C360.636 444.952 360.223 443.964 359.566 443.373C358.931 442.78 358.09 442.548 357.046 442.676C356.321 442.764 355.692 443.015 355.158 443.426C354.622 443.816 354.234 444.361 353.996 445.061C353.757 445.761 353.701 446.623 353.826 447.646L354.887 456.28L349.899 456.891L347.785 439.687L352.549 439.104L353.127 443.804L352.063 442.539C352.516 441.293 353.249 440.306 354.263 439.576C355.295 438.822 356.515 438.359 357.922 438.187C359.5 437.994 360.925 438.23 362.197 438.897C363.488 439.54 364.426 440.658 365.011 442.253L363.194 441.988C363.604 440.575 364.39 439.397 365.551 438.454C366.733 437.509 368.145 436.936 369.787 436.735ZM393.992 451.494L393.579 448.137L393.169 447.44L392.43 441.429C392.3 440.363 391.867 439.572 391.133 439.056C390.42 438.537 389.392 438.36 388.049 438.524C387.132 438.637 386.244 438.897 385.385 439.305C384.545 439.689 383.846 440.164 383.288 440.73L381.069 437.464C381.926 436.688 382.993 436.038 384.27 435.514C385.548 434.99 386.868 434.644 388.233 434.477C390.855 434.156 392.967 434.525 394.569 435.584C396.17 436.643 397.132 438.484 397.455 441.106L398.661 450.923L393.992 451.494ZM388.779 452.392C387.436 452.556 386.257 452.473 385.243 452.143C384.226 451.792 383.413 451.253 382.804 450.527C382.196 449.8 381.831 448.947 381.711 447.966C381.585 446.943 381.72 446.018 382.116 445.19C382.533 444.36 383.26 443.666 384.294 443.106C385.327 442.525 386.717 442.128 388.465 441.914L393.038 441.354L393.396 444.264L389.366 444.757C388.194 444.901 387.407 445.192 387.007 445.63C386.627 446.066 386.473 446.572 386.544 447.148C386.622 447.787 386.931 448.269 387.468 448.593C388.024 448.892 388.739 448.989 389.613 448.882C390.445 448.78 391.167 448.497 391.781 448.032C392.392 447.546 392.8 446.901 393.004 446.097L394.055 448.306C393.828 449.459 393.271 450.382 392.382 451.075C391.494 451.768 390.293 452.207 388.779 452.392ZM408.996 449.918C407.524 450.098 406.086 450.101 404.679 449.927C403.292 449.729 402.171 449.411 401.317 448.975L402.539 445.19C403.388 445.584 404.366 445.875 405.471 446.065C406.595 446.23 407.679 446.249 408.724 446.121C409.875 445.98 410.668 445.742 411.103 445.408C411.559 445.071 411.757 444.657 411.697 444.167C411.647 443.762 411.419 443.487 411.011 443.342C410.623 443.173 410.113 443.073 409.481 443.042C408.85 443.011 408.155 442.988 407.396 442.973C406.658 442.955 405.905 442.906 405.138 442.827C404.368 442.727 403.652 442.533 402.989 442.246C402.326 441.96 401.765 441.531 401.305 440.959C400.867 440.385 400.588 439.608 400.467 438.628C400.333 437.54 400.525 436.543 401.041 435.636C401.578 434.726 402.415 433.964 403.551 433.349C404.685 432.713 406.083 432.293 407.746 432.089C408.919 431.946 410.128 431.927 411.375 432.034C412.621 432.142 413.68 432.391 414.55 432.782L413.324 436.535C412.432 436.146 411.549 435.919 410.675 435.853C409.82 435.763 408.999 435.766 408.21 435.862C407.101 435.998 406.309 436.246 405.834 436.608C405.359 436.969 405.151 437.384 405.208 437.853C405.261 438.279 405.481 438.577 405.87 438.745C406.28 438.912 406.802 439.021 407.436 439.073C408.07 439.125 408.756 439.16 409.494 439.178C410.25 439.172 411.013 439.219 411.783 439.32C412.553 439.421 413.259 439.615 413.9 439.905C414.56 440.17 415.12 440.589 415.58 441.16C416.037 441.71 416.326 442.475 416.446 443.456C416.577 444.522 416.374 445.509 415.837 446.419C415.297 447.307 414.448 448.06 413.29 448.678C412.154 449.293 410.722 449.707 408.996 449.918ZM230.359 490.191L241.136 488.873L241.631 492.902L230.854 494.221L230.359 490.191ZM231.875 499.354L244.059 497.863L244.569 502.02L227.237 504.141L224.486 481.757L241.403 479.687L241.914 483.844L230.146 485.284L231.875 499.354ZM255.665 500.922C254.044 501.12 252.539 500.936 251.15 500.371C249.758 499.784 248.597 498.876 247.667 497.648C246.758 496.418 246.194 494.907 245.974 493.117C245.751 491.305 245.932 489.692 246.515 488.279C247.12 486.863 248.029 485.714 249.24 484.83C250.452 483.946 251.867 483.405 253.488 483.206C254.937 483.029 256.245 483.193 257.411 483.7C258.577 484.206 259.538 485.073 260.295 486.301C261.052 487.528 261.554 489.154 261.803 491.179C262.05 493.183 261.966 494.881 261.553 496.274C261.137 497.644 260.425 498.716 259.416 499.489C258.429 500.259 257.178 500.736 255.665 500.922ZM256.025 496.723C256.835 496.624 257.547 496.342 258.161 495.877C258.775 495.413 259.23 494.805 259.527 494.055C259.843 493.28 259.941 492.403 259.821 491.422C259.698 490.42 259.39 489.592 258.899 488.938C258.428 488.282 257.839 487.802 257.131 487.499C256.423 487.196 255.664 487.095 254.854 487.194C254.023 487.295 253.3 487.579 252.686 488.043C252.072 488.508 251.606 489.117 251.288 489.87C250.99 490.62 250.903 491.496 251.026 492.498C251.147 493.479 251.444 494.308 251.916 494.986C252.408 495.64 253.008 496.118 253.716 496.421C254.424 496.724 255.194 496.825 256.025 496.723ZM261.006 500.008L260.573 496.491L260.041 491.363L259.096 486.318L257.866 476.309L262.855 475.698L265.77 499.425L261.006 500.008ZM270.388 498.86L268.274 481.656L273.262 481.046L275.376 498.25L270.388 498.86ZM270.473 478.953C269.557 479.065 268.778 478.89 268.137 478.427C267.495 477.965 267.126 477.339 267.029 476.551C266.933 475.762 267.139 475.066 267.649 474.462C268.159 473.859 268.873 473.501 269.79 473.389C270.706 473.277 271.484 473.441 272.122 473.882C272.758 474.302 273.125 474.907 273.222 475.695C273.324 476.527 273.121 477.255 272.614 477.88C272.125 478.48 271.411 478.838 270.473 478.953ZM287.073 497.078C285.048 497.326 283.407 497.007 282.152 496.122C280.893 495.216 280.138 493.739 279.887 491.693L278.032 476.6L283.021 475.989L284.868 491.018C284.957 491.743 285.218 492.285 285.652 492.643C286.083 492.979 286.628 493.107 287.289 493.026C288.078 492.93 288.724 492.635 289.225 492.14L291.001 495.493C290.534 495.919 289.949 496.271 289.248 496.552C288.566 496.809 287.841 496.984 287.073 497.078ZM276.364 484.951L275.893 481.113L287.821 479.654L288.292 483.491L276.364 484.951ZM293.903 495.982L291.789 478.779L296.778 478.168L298.892 495.372L293.903 495.982ZM293.989 476.075C293.072 476.187 292.293 476.012 291.652 475.55C291.011 475.087 290.642 474.461 290.545 473.673C290.448 472.884 290.655 472.188 291.165 471.584C291.675 470.981 292.389 470.623 293.305 470.511C294.222 470.399 295 470.563 295.638 471.004C296.274 471.424 296.64 472.029 296.737 472.817C296.839 473.649 296.637 474.377 296.129 475.002C295.64 475.602 294.927 475.96 293.989 476.075ZM311.74 494.059C309.907 494.283 308.229 494.099 306.706 493.507C305.204 492.911 303.957 492.004 302.963 490.784C301.988 489.54 301.395 488.065 301.186 486.36C300.974 484.633 301.191 483.059 301.839 481.638C302.506 480.194 303.496 479.012 304.812 478.094C306.146 477.151 307.73 476.568 309.563 476.344C311.375 476.122 313.043 476.307 314.565 476.9C316.086 477.471 317.332 478.368 318.304 479.591C319.277 480.813 319.871 482.299 320.085 484.047C320.295 485.752 320.077 487.326 319.432 488.768C318.784 490.189 317.793 491.371 316.459 492.313C315.125 493.255 313.552 493.837 311.74 494.059ZM311.237 489.966C312.069 489.864 312.791 489.581 313.405 489.116C314.019 488.652 314.474 488.044 314.771 487.294C315.066 486.522 315.153 485.646 315.033 484.665C314.91 483.663 314.613 482.834 314.143 482.177C313.673 481.521 313.083 481.041 312.375 480.738C311.667 480.436 310.898 480.335 310.066 480.437C309.235 480.538 308.512 480.822 307.898 481.286C307.285 481.751 306.818 482.36 306.5 483.113C306.202 483.863 306.115 484.739 306.239 485.741C306.359 486.722 306.656 487.551 307.128 488.229C307.62 488.883 308.22 489.361 308.928 489.664C309.636 489.967 310.406 490.068 311.237 489.966ZM332.789 473.501C334.153 473.334 335.402 473.463 336.536 473.887C337.689 474.286 338.644 475.013 339.401 476.068C340.156 477.101 340.64 478.491 340.855 480.239L342.065 490.088L337.077 490.699L335.961 481.617C335.79 480.231 335.356 479.246 334.656 478.661C333.978 478.073 333.085 477.847 331.976 477.983C331.187 478.079 330.494 478.337 329.896 478.756C329.317 479.152 328.888 479.713 328.61 480.439C328.353 481.163 328.289 482.058 328.42 483.124L329.466 491.63L324.477 492.24L322.363 475.037L327.128 474.454L327.713 479.218L326.641 477.889C327.118 476.662 327.894 475.669 328.969 474.91C330.044 474.151 331.318 473.681 332.789 473.501Z" fill="white"/>
</svg>
