<svg width="140" height="140" viewBox="0 0 140 140" fill="none" xmlns="http://www.w3.org/2000/svg">
<circle cx="67.595" cy="71.2445" r="64.2654" transform="rotate(49.5697 67.595 71.2445)" stroke="#FF6B0A" stroke-width="2"/>
<ellipse cx="106.89" cy="78.9196" rx="15.7707" ry="24.4445" transform="rotate(18.1605 106.89 78.9196)" stroke="#FF6B0A" stroke-width="2"/>
<path d="M117.157 35.7538L121.449 32.0973C122.531 31.1755 122.618 29.5344 121.639 28.5039L114.217 20.6926C113.295 19.7221 111.768 19.6594 110.77 20.5509L106.397 24.4545C106.121 24.7009 105.898 25.0073 105.776 25.3565C103.227 32.6429 111.423 38.4839 116.691 36.0595C116.86 35.9816 117.015 35.8747 117.157 35.7538Z" stroke="#FF6B0A" stroke-width="2"/>
<ellipse cx="118.33" cy="24.3985" rx="7.88533" ry="5.51973" transform="rotate(-130.43 118.33 24.3985)" stroke="#FF6B0A" stroke-width="2"/>
</svg>
