<svg width="1360" height="800" viewBox="0 0 1360 800" fill="none" xmlns="http://www.w3.org/2000/svg">
<g clip-path="url(#clip0_4470_2421)">
<path d="M1205.82 -80.8124L1292.43 -26.4605L1245.13 53.2969L1157.05 0.441968L1205.82 -80.8124Z" stroke="#BFC7ED" stroke-opacity="0.8" stroke-width="2" stroke-miterlimit="10"/>
<path d="M1157.05 0.445312L1130.41 -25.2737L1170.58 -92.2232L1205.79 -80.7674L1157.05 0.445312Z" stroke="#BFC7ED" stroke-opacity="0.8" stroke-width="2" stroke-miterlimit="10"/>
<path d="M1240.85 -58.7108L1258.92 -47.3563L1210.98 32.8086L1192.69 21.8283L1240.85 -58.7108Z" stroke="#BFC7ED" stroke-opacity="0.8" stroke-width="2" stroke-miterlimit="10"/>
<path d="M1147.15 16.1069L1241.08 72.4805L1250.67 56.5124L1156.73 0.138792L1147.15 16.1069Z" stroke="#BFC7ED" stroke-opacity="0.8" stroke-width="2" stroke-miterlimit="10"/>
<path d="M1127 -28.4472L1156.77 0.55737L1147.15 16.1096L1118.11 -14.6664L1127 -28.4472Z" stroke="#BFC7ED" stroke-opacity="0.8" stroke-width="2" stroke-miterlimit="10"/>
<path d="M1180.14 36.7899L1197.57 47.2461L1207.53 30.6542L1190.1 20.1981L1180.14 36.7899Z" stroke="#BFC7ED" stroke-opacity="0.8" stroke-width="2" stroke-miterlimit="10"/>
<path d="M1134.76 -20.8383L1142.5 -13.3688L1133.26 1.27693L1126.09 -6.47529L1134.76 -20.8383Z" stroke="#BFC7ED" stroke-opacity="0.8" stroke-width="2" stroke-miterlimit="10"/>
<path d="M1198.23 96.8455C1207.44 97.9025 1213.17 94.3849 1216.16 83.2817C1217.44 76.8111 1213.17 56.0345 1198.42 48.3731C1205.4 65.008 1196.96 84.8271 1188.08 80.6843C1185.2 91.7958 1198.23 96.8455 1198.23 96.8455Z" stroke="#BFC7ED" stroke-opacity="0.8" stroke-width="2" stroke-miterlimit="10"/>
<path d="M1216.36 79.9375C1213.78 87.4394 1207.19 95.024 1200.71 91.8713C1194.23 88.7185 1187.34 81.64 1185.11 62.8264C1183.66 50.3588 1188.88 39.0147 1182.73 38.6066C1169.13 64.0975 1167.02 78.8353 1174.7 95.7198C1177.32 101.534 1184.35 106.317 1195.49 105.76C1198.47 105.686 1200.69 105.204 1203.6 104.405C1217.89 100.481 1216.36 79.9375 1216.36 79.9375Z" stroke="#BFC7ED" stroke-opacity="0.8" stroke-width="2" stroke-miterlimit="10"/>
<path d="M1124.59 58.2035C1130.4 45.512 1145.95 44.3822 1161.89 40.8239C1170.26 38.9449 1175.91 35.552 1175.91 35.552C1177.08 38.6877 1174.96 39.6772 1172.95 41.8063C1152.47 51.5189 1144.03 62.2889 1146.18 67.3708C1140.62 72.9678 1119.99 73.0325 1124.59 58.2035Z" stroke="#BFC7ED" stroke-opacity="0.8" stroke-width="2" stroke-miterlimit="10"/>
<path d="M1182.71 39.5624C1171.03 69.5946 1162.42 82.4189 1152.68 88.5644C1142.19 95.2172 1135.87 94.5347 1129.5 84.6034C1119.36 68.7916 1121.21 63.4522 1124.59 58.1877C1123.54 65.8727 1129.72 68.9589 1135.05 68.3688C1140.38 67.7788 1153.68 63.2554 1164.11 51.2464C1167.63 47.0798 1174.22 39.387 1175.94 35.4947C1178.11 36.1187 1183.25 38.1901 1182.71 39.5624Z" stroke="#BFC7ED" stroke-opacity="0.8" stroke-width="2" stroke-miterlimit="10"/>
<path d="M1129.17 34.0076C1130.36 26.3559 1138.64 15.2033 1160.79 25.3273C1154.17 13.5496 1124.28 1.15441 1117.94 9.17159C1109.68 19.2596 1113.85 25.3231 1118.96 30.3721C1124.12 35.446 1129.17 34.0076 1129.17 34.0076Z" stroke="#BFC7ED" stroke-opacity="0.8" stroke-width="2" stroke-miterlimit="10"/>
<path d="M1175.78 35.467C1154.83 47.1009 1125.57 55.6151 1113.53 48.1618C1107.04 44.2688 1110.79 13.6038 1118.01 9.11319C1113.06 18.4113 1116.62 24.4499 1124.38 28.7672C1132.16 33.0429 1157.1 28.1546 1166.83 30.0351C1174.55 32.5226 1175.78 35.467 1175.78 35.467Z" stroke="#BFC7ED" stroke-opacity="0.8" stroke-width="2" stroke-miterlimit="10"/>
<path d="M1185.63 40.2855C1189.28 45.7003 1200.2 53.3281 1207.28 53.1125C1215.11 53.7369 1243.51 46.2873 1254.14 38.4701C1238.73 44.7232 1223.8 27.389 1233.15 11.6205C1219.48 25.2511 1187.31 39.6536 1185.63 40.2855Z" stroke="#BFC7ED" stroke-opacity="0.8" stroke-width="2" stroke-miterlimit="10"/>
<path d="M1178.18 36.2915C1169.43 18.8248 1169.04 0.718267 1173.32 -14.4186C1179.11 -33.9634 1192.38 -39.8591 1196.67 -43.9008C1155.61 -27.3117 1172.43 -58.4497 1172.43 -58.4497C1153.45 -44.5534 1144.19 -24.2104 1147.72 -4.27389C1151.25 15.6626 1156.96 24.3462 1160.41 28.397C1163.88 32.5143 1174.33 36.2995 1178.18 36.2915Z" stroke="#BFC7ED" stroke-opacity="0.8" stroke-width="2" stroke-miterlimit="10"/>
<path d="M1380.76 692.877L1283.18 662.329L1308.65 573.168L1407.27 601.895L1380.76 692.877Z" stroke="#BFC7ED" stroke-opacity="0.8" stroke-width="2" stroke-miterlimit="10"/>
<path d="M1341.26 680.41L1320.9 674.023L1346.88 584.305L1367.37 590.273L1341.26 680.41Z" stroke="#BFC7ED" stroke-opacity="0.8" stroke-width="2" stroke-miterlimit="10"/>
<path d="M1412.87 584.23L1307.68 553.59L1302.48 571.47L1407.66 602.109L1412.87 584.23Z" stroke="#BFC7ED" stroke-opacity="0.8" stroke-width="2" stroke-miterlimit="10"/>
<path d="M1375.69 572.613L1356.18 566.93L1350.77 585.508L1370.28 591.191L1375.69 572.613Z" stroke="#BFC7ED" stroke-opacity="0.8" stroke-width="2" stroke-miterlimit="10"/>
<path d="M1342.93 519.134C1333.76 520.452 1329.11 525.311 1329.04 536.809C1329.45 543.392 1338.86 562.4 1355.07 566.061C1344.09 551.748 1347.22 530.434 1356.86 532.182C1356.82 520.704 1342.93 519.134 1342.93 519.134Z" stroke="#BFC7ED" stroke-opacity="0.8" stroke-width="2" stroke-miterlimit="10"/>
<path d="M1329.7 540.094C1330.29 532.183 1334.73 523.172 1341.8 524.574C1348.86 525.977 1357.33 531.07 1364.27 548.699C1368.84 560.387 1366.68 572.687 1372.72 571.519C1379.4 543.408 1377.7 528.617 1365.97 514.24C1361.96 509.283 1353.95 506.444 1343.32 509.813C1340.45 510.645 1338.43 511.673 1335.82 513.186C1323 520.614 1329.7 540.094 1329.7 540.094Z" stroke="#BFC7ED" stroke-opacity="0.8" stroke-width="2" stroke-miterlimit="10"/>
<path d="M1369.5 570.633C1364.6 566.324 1352.1 561.723 1345.3 563.733C1337.57 565.119 1312 579.543 1303.71 589.806C1317.02 579.842 1335.87 592.809 1330.83 610.437C1340.59 593.78 1368.04 571.671 1369.5 570.633Z" stroke="#BFC7ED" stroke-opacity="0.8" stroke-width="2" stroke-miterlimit="10"/>
<path d="M1377.72 572.601C1390.62 587.27 1395.6 604.682 1395.31 620.409C1394.68 640.784 1383.35 649.858 1380.22 654.858C1415.72 628.375 1407.37 662.766 1407.37 662.766C1422.19 644.503 1425.98 622.472 1417.49 604.089C1409.01 585.706 1401.28 578.758 1396.91 575.717C1392.51 572.617 1381.44 571.614 1377.72 572.601Z" stroke="#BFC7ED" stroke-opacity="0.8" stroke-width="2" stroke-miterlimit="10"/>
<path d="M-4.55753 652.203L-67.0949 571.305L4.81836 512.766L69.2463 592.764L-4.55753 652.203Z" stroke="#BFC7ED" stroke-opacity="0.8" stroke-width="2" stroke-miterlimit="10"/>
<path d="M69.2441 592.762L85.3795 626.095L24.5688 675.07L-4.52192 652.17L69.2441 592.762Z" stroke="#BFC7ED" stroke-opacity="0.8" stroke-width="2" stroke-miterlimit="10"/>
<path d="M-29.8156 619.371L-42.8601 602.478L29.7949 543.777L43.1794 560.396L-29.8156 619.371Z" stroke="#BFC7ED" stroke-opacity="0.8" stroke-width="2" stroke-miterlimit="10"/>
<path d="M16.2753 668.357L7.52771 661.516L75.8926 606.457L80.7498 616.431L16.2753 668.357Z" stroke="#BFC7ED" stroke-opacity="0.8" stroke-width="2" stroke-miterlimit="10"/>
<path d="M83.9495 581.48L15.2324 496.156L0.728494 507.837L69.4456 593.161L83.9495 581.48Z" stroke="#BFC7ED" stroke-opacity="0.8" stroke-width="2" stroke-miterlimit="10"/>
<path d="M87.4842 630.25L69.5554 592.757L83.947 581.478L100.585 620.384L87.4842 630.25Z" stroke="#BFC7ED" stroke-opacity="0.8" stroke-width="2" stroke-miterlimit="10"/>
<path d="M60.1187 550.681L47.373 534.855L32.3026 546.993L45.0482 562.819L60.1187 550.681Z" stroke="#BFC7ED" stroke-opacity="0.8" stroke-width="2" stroke-miterlimit="10"/>
<path d="M82.821 620.43L78.1389 610.75L91.8664 600.193L95.92 609.942L82.821 620.43Z" stroke="#BFC7ED" stroke-opacity="0.8" stroke-width="2" stroke-miterlimit="10"/>
<path d="M63.8588 488.07C55.582 483.901 48.9893 485.226 42.3549 494.616C38.9195 500.247 35.7615 521.223 46.958 533.501C46.1418 515.478 60.9053 499.789 67.8128 506.743C74.3486 497.307 63.8588 488.07 63.8588 488.07Z" stroke="#BFC7ED" stroke-opacity="0.8" stroke-width="2" stroke-miterlimit="10"/>
<path d="M41.0139 497.689C46.0229 491.538 54.8232 486.692 59.8163 491.887C64.8094 497.082 68.8379 506.104 64.4369 524.531C61.5002 536.735 52.6827 545.58 58.3107 548.083C79.8717 528.851 86.9409 515.747 85.5551 497.249C85.1026 490.888 80.1569 483.974 69.5122 480.653C66.684 479.693 64.4411 479.382 61.4333 479.127C46.6676 477.88 41.0139 497.689 41.0139 497.689Z" stroke="#BFC7ED" stroke-opacity="0.8" stroke-width="2" stroke-miterlimit="10"/>
<path d="M119.638 549.754C109.809 559.663 94.8214 555.357 78.6363 553.198C70.1346 552.075 63.6553 553.308 63.6553 553.308C63.6368 549.96 65.969 549.763 68.5929 548.459C91.1643 546.409 102.805 539.213 102.537 533.7C109.691 530.367 129.073 537.423 119.638 549.754Z" stroke="#BFC7ED" stroke-opacity="0.8" stroke-width="2" stroke-miterlimit="10"/>
<path d="M58.6605 547.193C79.9933 523.038 92.4911 513.969 103.753 511.561C115.901 508.939 121.598 511.761 124.15 523.28C128.209 541.618 124.634 545.993 119.64 549.766C123.275 542.915 118.54 537.886 113.333 536.6C108.125 535.314 94.0896 534.974 80.1558 542.646C75.4157 545.343 66.5703 550.287 63.6189 553.349C61.7968 552.015 57.6795 548.294 58.6605 547.193Z" stroke="#BFC7ED" stroke-opacity="0.8" stroke-width="2" stroke-miterlimit="10"/>
<path d="M106.999 570.882C103.234 577.651 91.6177 585.262 74.3233 568.118C76.4725 581.457 100.251 603.404 108.966 598.066C120.199 591.448 118.381 584.319 115.323 577.816C112.234 571.274 106.999 570.882 106.999 570.882Z" stroke="#BFC7ED" stroke-opacity="0.8" stroke-width="2" stroke-miterlimit="10"/>
<path d="M63.7517 553.426C87.4311 549.736 117.832 551.84 126.564 562.991C131.309 568.883 117.205 596.37 108.879 598.094C116.741 591.077 115.484 584.181 109.691 577.452C103.859 570.753 78.7689 566.737 70.2845 561.615C63.8909 556.614 63.7517 553.426 63.7517 553.426Z" stroke="#BFC7ED" stroke-opacity="0.8" stroke-width="2" stroke-miterlimit="10"/>
<path d="M56.1725 545.51C54.6143 539.168 46.9971 528.241 40.2716 525.999C33.1414 522.712 3.91935 519.907 -8.7551 523.576C7.86041 523.022 15.8982 544.445 1.68171 556.019C19.2118 547.941 54.3775 545.524 56.1725 545.51Z" stroke="#BFC7ED" stroke-opacity="0.8" stroke-width="2" stroke-miterlimit="10"/>
<path d="M61.787 551.829C63.971 571.242 58.0889 588.371 48.8524 601.102C36.6737 617.449 22.1878 618.405 16.7648 620.718C61.0302 619.316 34.4992 642.738 34.4992 642.738C57.1015 636.241 72.8187 620.345 76.3816 600.414C79.9444 580.483 77.5862 570.364 75.7446 565.371C73.9103 560.31 65.4041 553.15 61.787 551.829Z" stroke="#BFC7ED" stroke-opacity="0.8" stroke-width="2" stroke-miterlimit="10"/>
<path d="M558.47 59.0817C506.318 64.9796 507.448 118.021 514.802 142.822C503.933 119.348 471.976 77.9431 428.935 107.979C427.071 103.799 427.772 88.9415 445.493 62.9477C438.791 58.8703 412.208 56.725 391.885 68.5332C387.363 57.3132 391.475 26.9771 411.702 7.62123C394.824 3.93806 382.7 3.4424 350.392 23.086C341.586 1.83126 341.599 -39.1919 408.858 -73.3068L403.046 -88.7028L449.055 -106.071L454.914 -90.5494C527.059 -108.761 553.928 -78.1925 561.323 -56.5369C521.004 -51.3247 515.322 -41.5478 505.088 -27.6303C533.06 -26.4688 558.553 -3.55916 562.573 7.8503C539.517 12.4171 518.621 28.736 516.286 36.2248C546.763 44.0242 557.108 54.7125 558.47 59.0817Z" stroke="#BFC7ED" stroke-opacity="0.8" stroke-width="2"/>
<path d="M113.462 279.826C84.9861 323.914 126.742 356.642 150.591 366.664C125.542 360.202 73.2604 358.698 69.2333 411.029C64.8182 409.823 53.7664 399.868 44.8808 369.689C37.4805 372.291 18.9797 391.501 15.2413 414.706C3.69523 411.097 -17.172 388.697 -19.3342 360.785C-32.8764 371.51 -40.9408 380.577 -46.209 418.019C-68.2335 411.368 -99.9661 385.369 -83.7528 311.716L-99.347 306.46L-83.6376 259.858L-67.9166 265.158C-36.3027 197.799 4.3705 196.376 25.8114 204.373C4.30158 238.871 8.26644 249.461 12.5515 266.197C31.1708 245.29 65.047 240.078 76.4216 244.196C65.3486 264.928 64.7376 291.434 69.0522 297.986C94.3949 279.345 109.218 278.112 113.462 279.826Z" stroke="#BFC7ED" stroke-opacity="0.8" stroke-width="2"/>
<path d="M1215.19 789.909C1266.95 781.219 1262.97 728.315 1254.3 703.944C1266.41 726.801 1300.55 766.43 1341.91 734.126C1344 738.2 1344.1 753.074 1327.8 779.982C1334.71 783.693 1361.37 784.408 1381.03 771.525C1386.14 782.486 1383.67 812.999 1364.51 833.414C1381.56 836.185 1393.69 836.029 1424.9 814.679C1434.83 835.43 1437.02 876.394 1371.7 914.072L1378.33 929.134L1333.31 948.947L1326.63 933.763C1255.57 955.823 1227.1 926.741 1218.55 905.514C1258.53 898.144 1263.68 888.076 1273.15 873.629C1245.16 873.971 1218.47 852.464 1213.84 841.287C1236.62 835.488 1256.61 818.071 1258.54 810.468C1227.69 804.316 1216.78 794.199 1215.19 789.909Z" stroke="#BFC7ED" stroke-opacity="0.8" stroke-width="2"/>
<path d="M1318.56 287.163C1299.67 238.196 1248.64 252.698 1226.5 266.084C1246.47 249.633 1278.45 208.247 1238.51 174.197C1242.08 171.337 1256.63 168.259 1286.26 178.833C1288.51 171.319 1283.87 145.056 1267.3 128.379C1277.02 121.167 1307.41 117.476 1331.25 132.153C1330.54 114.892 1327.96 103.036 1300.78 76.7443C1319.12 62.8505 1358.82 52.4924 1408.83 108.942L1422.25 99.4266L1450.69 139.551L1437.15 149.143C1473.01 214.341 1450.23 248.064 1431.15 260.694C1415.91 223.003 1405.01 219.976 1388.96 213.593C1394.91 240.95 1379.19 271.407 1369.17 278.181C1358.92 257.028 1337.85 240.937 1330.01 240.57C1330.17 272.03 1322.44 284.74 1318.56 287.163Z" stroke="#BFC7ED" stroke-opacity="0.8" stroke-width="2"/>
<path d="M981.547 12.7678C937.871 -16.3373 904.548 24.9448 894.186 48.6474C901.006 23.6939 903.259 -28.5606 850.992 -33.3376C852.261 -37.7351 862.373 -48.6429 892.676 -57.0948C890.181 -64.5317 871.239 -83.3061 848.089 -87.3768C851.864 -98.87 874.56 -119.414 902.501 -121.176C891.971 -134.87 883.02 -143.064 845.658 -148.868C852.624 -170.795 879.075 -202.152 952.488 -184.884L957.968 -200.401L1004.34 -184.025L998.815 -168.382C1065.71 -135.805 1066.55 -95.1157 1058.25 -73.7917C1024.06 -95.794 1013.42 -91.9814 996.622 -87.9368C1017.26 -69.0196 1021.98 -35.0722 1017.7 -23.7578C997.133 -35.127 970.639 -36.118 964.026 -31.8977C982.301 -6.2903 983.321 8.54903 981.547 12.7678Z" stroke="#BFC7ED" stroke-opacity="0.8" stroke-width="2"/>
<path d="M336.832 749.463C380.508 778.568 413.831 737.286 424.193 713.583C417.373 738.537 415.12 790.791 467.387 795.568C466.118 799.966 456.006 810.873 425.702 819.325C428.198 826.762 447.14 845.537 470.289 849.607C466.515 861.1 443.819 881.644 415.878 883.406C426.408 897.101 435.359 905.294 472.721 911.099C465.755 933.026 439.304 964.382 365.891 947.114L360.411 962.632L314.04 946.256L319.564 930.612C252.666 898.036 251.826 857.346 260.13 836.022C294.316 858.024 304.962 854.212 321.757 850.167C301.119 831.25 296.394 797.303 300.674 785.988C321.246 797.357 347.74 798.348 354.353 794.128C336.077 768.521 335.057 753.681 336.832 749.463Z" stroke="#BFC7ED" stroke-opacity="0.8" stroke-width="2"/>
<circle cx="689.104" cy="-22.7485" r="64.2654" transform="rotate(37.5352 689.104 -22.7485)" stroke="#BFC7ED" stroke-opacity="0.8" stroke-width="2"/>
<ellipse cx="729.134" cy="-23.4379" rx="15.7707" ry="24.4445" transform="rotate(6.12608 729.134 -23.4379)" stroke="#BFC7ED" stroke-opacity="0.8" stroke-width="2"/>
<circle cx="629.275" cy="794.979" r="64.2654" transform="rotate(-142.465 629.275 794.979)" stroke="#BFC7ED" stroke-opacity="0.8" stroke-width="2"/>
<ellipse cx="589.244" cy="795.668" rx="15.7707" ry="24.4445" transform="rotate(-173.874 589.244 795.668)" stroke="#BFC7ED" stroke-opacity="0.8" stroke-width="2"/>
<circle cx="1358.66" cy="397.526" r="64.2654" transform="rotate(-29.5794 1358.66 397.526)" stroke="#BFC7ED" stroke-opacity="0.8" stroke-width="2"/>
<ellipse cx="1373.6" cy="360.376" rx="15.7707" ry="24.4445" transform="rotate(-60.9885 1373.6 360.376)" stroke="#BFC7ED" stroke-opacity="0.8" stroke-width="2"/>
<path d="M1333.14 342.171L1330.35 337.268C1329.65 336.031 1328.06 335.637 1326.86 336.405L1317.79 342.224C1316.66 342.947 1316.32 344.434 1317 345.582L1320.01 350.611C1320.2 350.929 1320.46 351.206 1320.78 351.392C1327.46 355.267 1334.74 348.317 1333.35 342.687C1333.3 342.506 1333.23 342.333 1333.14 342.171Z" stroke="#BFC7ED" stroke-opacity="0.8" stroke-width="2"/>
<ellipse cx="1322.2" cy="338.885" rx="7.88533" ry="5.51973" transform="rotate(150.421 1322.2 338.885)" stroke="#BFC7ED" stroke-opacity="0.8" stroke-width="2"/>
<path d="M280.418 56.5799L193.494 110.427L142.695 32.8516L228.92 -22.9687L280.418 56.5799Z" stroke="#BFC7ED" stroke-opacity="0.8" stroke-width="2" stroke-miterlimit="10"/>
<path d="M228.918 -22.9727L263.74 -35.5787L306.172 29.9655L280.39 56.5352L228.918 -22.9727Z" stroke="#BFC7ED" stroke-opacity="0.8" stroke-width="2" stroke-miterlimit="10"/>
<path d="M245.157 78.3107L227.007 89.5406L176.125 11.2109L194.038 -0.385341L245.157 78.3107Z" stroke="#BFC7ED" stroke-opacity="0.8" stroke-width="2" stroke-miterlimit="10"/>
<path d="M298.634 37.5241L290.926 45.5183L243.223 -28.168L253.645 -31.9689L298.634 37.5241Z" stroke="#BFC7ED" stroke-opacity="0.8" stroke-width="2" stroke-miterlimit="10"/>
<path d="M219.219 -38.7629L127.254 20.7734L137.374 36.4063L229.34 -23.13L219.219 -38.7629Z" stroke="#BFC7ED" stroke-opacity="0.8" stroke-width="2" stroke-miterlimit="10"/>
<path d="M186.12 -18.2342L169.062 -7.19141L179.578 9.05214L196.636 -1.99067L186.12 -18.2342Z" stroke="#BFC7ED" stroke-opacity="0.8" stroke-width="2" stroke-miterlimit="10"/>
<path d="M124.228 -28.4204C119.226 -20.6185 119.862 -13.9243 128.518 -6.35539C133.764 -2.35676 154.3 2.95093 167.67 -6.91746C149.659 -7.96725 135.579 -24.2723 143.208 -30.4246C134.498 -37.9001 124.228 -28.4204 124.228 -28.4204Z" stroke="#BFC7ED" stroke-opacity="0.8" stroke-width="2" stroke-miterlimit="10"/>
<path d="M131.438 -4.70258C125.837 -10.3202 121.926 -19.574 127.609 -24.0038C133.291 -28.4336 142.682 -31.5086 160.555 -25.2279C172.39 -21.0463 180.277 -11.3623 183.349 -16.7017C166.446 -40.1339 154.143 -48.5187 135.6 -49.051C129.227 -49.258 121.839 -45.0529 117.437 -34.8081C116.189 -32.0942 115.649 -29.8954 115.084 -26.9301C112.319 -12.3722 131.438 -4.70258 131.438 -4.70258Z" stroke="#BFC7ED" stroke-opacity="0.8" stroke-width="2" stroke-miterlimit="10"/>
<path d="M180.571 -14.8462C174.102 -13.9514 162.446 -7.50355 159.521 -1.04572C155.515 5.70694 149.707 34.4829 152.047 47.4685C153.212 30.8847 175.351 25.1027 185.395 40.4386C179.171 22.1679 180.399 -13.0594 180.571 -14.8462Z" stroke="#BFC7ED" stroke-opacity="0.8" stroke-width="2" stroke-miterlimit="10"/>
<path d="M187.427 -19.7717C206.962 -19.939 223.391 -12.3191 235.101 -1.81686C250.102 11.9851 249.557 26.4923 251.297 32.1251C254.475 -12.0483 275.031 16.7601 275.031 16.7601C270.904 -6.39236 256.717 -23.6674 237.26 -29.2699C217.803 -34.8724 207.495 -33.572 202.339 -32.2559C197.116 -30.9542 189.115 -23.233 187.427 -19.7717Z" stroke="#BFC7ED" stroke-opacity="0.8" stroke-width="2" stroke-miterlimit="10"/>
<circle cx="54.7901" cy="89.7977" r="64.2654" transform="rotate(126.121 54.7901 89.7977)" stroke="#BFC7ED" stroke-opacity="0.8" stroke-width="2"/>
<ellipse cx="56.4638" cy="129.799" rx="15.7707" ry="24.4445" transform="rotate(94.7117 56.4638 129.799)" stroke="#BFC7ED" stroke-opacity="0.8" stroke-width="2"/>
<path d="M100.833 129.743L105.387 133.067C106.535 133.905 108.151 133.607 108.926 132.415L114.797 123.38C115.526 122.258 115.232 120.759 114.133 119.995L109.32 116.65C109.016 116.439 108.666 116.293 108.298 116.255C100.618 115.471 96.8436 124.801 100.427 129.361C100.542 129.507 100.682 129.633 100.833 129.743Z" stroke="#BFC7ED" stroke-opacity="0.8" stroke-width="2"/>
<ellipse cx="112.15" cy="128.244" rx="7.88533" ry="5.51973" transform="rotate(-53.8792 112.15 128.244)" stroke="#BFC7ED" stroke-opacity="0.8" stroke-width="2"/>
<circle cx="94.595" cy="755.237" r="64.2654" transform="rotate(49.5697 94.595 755.237)" stroke="#BFC7ED" stroke-opacity="0.8" stroke-width="2"/>
<ellipse cx="133.89" cy="762.912" rx="15.7707" ry="24.4445" transform="rotate(18.1605 133.89 762.912)" stroke="#BFC7ED" stroke-opacity="0.8" stroke-width="2"/>
<path d="M144.157 719.746L148.449 716.089C149.531 715.168 149.618 713.527 148.639 712.496L141.217 704.685C140.295 703.714 138.768 703.652 137.77 704.543L133.397 708.447C133.121 708.693 132.898 708.999 132.776 709.349C130.227 716.635 138.423 722.476 143.691 720.052C143.86 719.974 144.015 719.867 144.157 719.746Z" stroke="#BFC7ED" stroke-opacity="0.8" stroke-width="2"/>
<ellipse cx="145.33" cy="708.391" rx="7.88533" ry="5.51973" transform="rotate(-130.43 145.33 708.391)" stroke="#BFC7ED" stroke-opacity="0.8" stroke-width="2"/>
<path d="M1088.42 876.576L1001.5 930.423L950.697 852.848L1036.92 797.027L1088.42 876.576Z" stroke="#BFC7ED" stroke-opacity="0.8" stroke-width="2" stroke-miterlimit="10"/>
<path d="M1036.92 797.023L1071.74 784.417L1114.17 849.962L1088.39 876.531L1036.92 797.023Z" stroke="#BFC7ED" stroke-opacity="0.8" stroke-width="2" stroke-miterlimit="10"/>
<path d="M1106.64 857.52L1098.93 865.514L1051.22 791.828L1061.65 788.027L1106.64 857.52Z" stroke="#BFC7ED" stroke-opacity="0.8" stroke-width="2" stroke-miterlimit="10"/>
<path d="M1027.22 781.233L935.256 840.77L945.376 856.402L1037.34 796.866L1027.22 781.233Z" stroke="#BFC7ED" stroke-opacity="0.8" stroke-width="2" stroke-miterlimit="10"/>
<path d="M1076.09 782.759L1036.95 796.719L1027.21 781.239L1067.63 768.709L1076.09 782.759Z" stroke="#BFC7ED" stroke-opacity="0.8" stroke-width="2" stroke-miterlimit="10"/>
<path d="M1065.84 786.377L1055.73 790.034L1046.65 775.289L1056.76 772.264L1065.84 786.377Z" stroke="#BFC7ED" stroke-opacity="0.8" stroke-width="2" stroke-miterlimit="10"/>
<path d="M932.23 791.576C927.228 799.378 927.864 806.072 936.52 813.641C941.766 817.639 962.302 822.947 975.672 813.079C957.661 812.029 943.581 795.724 951.21 789.572C942.5 782.096 932.23 791.576 932.23 791.576Z" stroke="#BFC7ED" stroke-opacity="0.8" stroke-width="2" stroke-miterlimit="10"/>
<path d="M939.44 815.294C933.839 809.676 929.928 800.422 935.611 795.992C941.293 791.563 950.684 788.488 968.557 794.768C980.392 798.95 988.279 808.634 991.351 803.294C974.448 779.862 962.145 771.477 943.602 770.945C937.229 770.738 929.841 774.943 925.439 785.188C924.191 787.902 923.65 790.101 923.086 793.066C920.32 807.624 939.44 815.294 939.44 815.294Z" stroke="#BFC7ED" stroke-opacity="0.8" stroke-width="2" stroke-miterlimit="10"/>
<path d="M999.342 742.463C1008.18 753.263 1002.35 767.726 998.532 783.601C996.536 791.941 997.093 798.513 997.093 798.513C993.762 798.186 993.807 795.846 992.781 793.101C993.073 770.439 987.118 758.118 981.607 757.815C979.031 750.355 988.051 731.805 999.342 742.463Z" stroke="#BFC7ED" stroke-opacity="0.8" stroke-width="2" stroke-miterlimit="10"/>
<path d="M990.501 802.853C968.679 779.139 960.949 765.772 959.718 754.321C958.365 741.967 961.76 736.592 973.481 735.243C992.141 733.1 996.122 737.109 999.359 742.466C992.92 738.142 987.429 742.332 985.612 747.379C983.796 752.426 982.007 766.351 988.199 781.003C990.392 785.996 994.396 795.305 997.137 798.557C995.621 800.232 991.495 803.943 990.501 802.853Z" stroke="#BFC7ED" stroke-opacity="0.8" stroke-width="2" stroke-miterlimit="10"/>
<path d="M1019.06 757.219C1025.4 761.663 1031.77 774.003 1012.93 789.434C1026.42 788.674 1050.71 767.29 1046.3 758.07C1040.88 746.213 1033.6 747.285 1026.81 749.656C1019.99 752.052 1019.06 757.219 1019.06 757.219Z" stroke="#BFC7ED" stroke-opacity="0.8" stroke-width="2" stroke-miterlimit="10"/>
<path d="M997.225 798.432C996.001 774.498 1001.23 744.477 1013.23 736.944C1019.58 732.833 1045.46 749.7 1046.32 758.16C1040.15 749.615 1033.16 750.154 1025.87 755.221C1018.6 760.329 1012.02 784.87 1006.05 792.78C1000.41 798.623 997.225 798.432 997.225 798.432Z" stroke="#BFC7ED" stroke-opacity="0.8" stroke-width="2" stroke-miterlimit="10"/>
<path d="M995.429 800.224C1014.96 800.057 1031.39 807.677 1043.1 818.179C1058.1 831.981 1057.56 846.488 1059.3 852.121C1062.48 807.948 1083.03 836.756 1083.03 836.756C1078.91 813.604 1064.72 796.329 1045.26 790.726C1025.81 785.124 1015.5 786.424 1010.34 787.74C1005.12 789.042 997.117 796.763 995.429 800.224Z" stroke="#BFC7ED" stroke-opacity="0.8" stroke-width="2" stroke-miterlimit="10"/>
</g>
<defs>
<clipPath id="clip0_4470_2421">
<rect width="1360" height="800" fill="white"/>
</clipPath>
</defs>
</svg>
