<svg width="1630" height="1271" viewBox="0 0 1630 1271" fill="none" xmlns="http://www.w3.org/2000/svg">
<path d="M1333.8 149.188L1420.41 203.54L1373.11 283.297L1285.04 230.442L1333.8 149.188Z" stroke="#BFC7ED" stroke-opacity="0.8" stroke-width="2" stroke-miterlimit="10"/>
<path d="M1285.04 230.445L1258.39 204.726L1298.57 137.777L1333.77 149.233L1285.04 230.445Z" stroke="#BFC7ED" stroke-opacity="0.8" stroke-width="2" stroke-miterlimit="10"/>
<path d="M1368.83 171.289L1386.9 182.644L1338.96 262.809L1320.67 251.828L1368.83 171.289Z" stroke="#BFC7ED" stroke-opacity="0.8" stroke-width="2" stroke-miterlimit="10"/>
<path d="M1308.67 141.222L1319.24 144.624L1274.07 219.891L1266.07 212.205L1308.67 141.222Z" stroke="#BFC7ED" stroke-opacity="0.8" stroke-width="2" stroke-miterlimit="10"/>
<path d="M1275.13 246.107L1369.07 302.48L1378.65 286.512L1284.71 230.139L1275.13 246.107Z" stroke="#BFC7ED" stroke-opacity="0.8" stroke-width="2" stroke-miterlimit="10"/>
<path d="M1254.98 201.553L1284.75 230.557L1275.13 246.11L1246.09 215.334L1254.98 201.553Z" stroke="#BFC7ED" stroke-opacity="0.8" stroke-width="2" stroke-miterlimit="10"/>
<path d="M1308.13 266.79L1325.55 277.246L1335.51 260.654L1318.08 250.198L1308.13 266.79Z" stroke="#BFC7ED" stroke-opacity="0.8" stroke-width="2" stroke-miterlimit="10"/>
<path d="M1262.74 209.162L1270.48 216.631L1261.24 231.277L1254.07 223.525L1262.74 209.162Z" stroke="#BFC7ED" stroke-opacity="0.8" stroke-width="2" stroke-miterlimit="10"/>
<path d="M1326.21 326.845C1335.42 327.903 1341.15 324.385 1344.14 313.282C1345.42 306.811 1341.15 286.034 1326.4 278.373C1333.39 295.008 1324.94 314.827 1316.06 310.684C1313.18 321.796 1326.21 326.845 1326.21 326.845Z" stroke="#BFC7ED" stroke-opacity="0.8" stroke-width="2" stroke-miterlimit="10"/>
<path d="M1344.34 309.938C1341.76 317.439 1335.17 325.024 1328.69 321.871C1322.22 318.718 1315.32 311.64 1313.09 292.826C1311.64 280.359 1316.86 269.015 1310.72 268.607C1297.12 294.098 1295 308.835 1302.69 325.72C1305.31 331.534 1312.33 336.317 1323.47 335.76C1326.46 335.686 1328.67 335.204 1331.58 334.405C1345.87 330.481 1344.34 309.938 1344.34 309.938Z" stroke="#BFC7ED" stroke-opacity="0.8" stroke-width="2" stroke-miterlimit="10"/>
<path d="M1252.57 288.203C1258.38 275.512 1273.93 274.382 1289.87 270.824C1298.24 268.945 1303.89 265.552 1303.89 265.552C1305.07 268.688 1302.95 269.677 1300.93 271.806C1280.45 281.519 1272.01 292.289 1274.17 297.371C1268.6 302.968 1247.97 303.033 1252.57 288.203Z" stroke="#BFC7ED" stroke-opacity="0.8" stroke-width="2" stroke-miterlimit="10"/>
<path d="M1310.7 269.562C1299.01 299.595 1290.41 312.419 1280.67 318.564C1270.17 325.217 1263.85 324.535 1257.48 314.603C1247.34 298.792 1249.19 293.452 1252.57 288.188C1251.53 295.873 1257.7 298.959 1263.04 298.369C1268.37 297.779 1281.66 293.255 1292.09 281.246C1295.61 277.08 1302.2 269.387 1303.92 265.495C1306.09 266.119 1311.24 268.19 1310.7 269.562Z" stroke="#BFC7ED" stroke-opacity="0.8" stroke-width="2" stroke-miterlimit="10"/>
<path d="M1257.15 264.008C1258.35 256.356 1266.62 245.203 1288.77 255.327C1282.15 243.55 1252.26 231.154 1245.92 239.172C1237.66 249.26 1241.83 255.323 1246.94 260.372C1252.1 265.446 1257.15 264.008 1257.15 264.008Z" stroke="#BFC7ED" stroke-opacity="0.8" stroke-width="2" stroke-miterlimit="10"/>
<path d="M1303.77 265.467C1282.81 277.101 1253.55 285.615 1241.51 278.162C1235.02 274.269 1238.78 243.604 1246 239.113C1241.04 248.411 1244.6 254.45 1252.36 258.767C1260.14 263.043 1285.08 258.155 1294.81 260.035C1302.53 262.523 1303.77 265.467 1303.77 265.467Z" stroke="#BFC7ED" stroke-opacity="0.8" stroke-width="2" stroke-miterlimit="10"/>
<path d="M1313.61 270.286C1317.26 275.7 1328.18 283.328 1335.27 283.112C1343.09 283.737 1371.49 276.287 1382.12 268.47C1366.71 274.723 1351.78 257.389 1361.13 241.62C1347.46 255.251 1315.29 269.654 1313.61 270.286Z" stroke="#BFC7ED" stroke-opacity="0.8" stroke-width="2" stroke-miterlimit="10"/>
<path d="M1306.16 266.292C1297.42 248.825 1297.03 230.718 1301.3 215.581C1307.09 196.037 1320.36 190.141 1324.65 186.099C1283.59 202.688 1300.41 171.55 1300.41 171.55C1281.44 185.447 1272.17 205.79 1275.7 225.726C1279.24 245.663 1284.94 254.346 1288.39 258.397C1291.86 262.514 1302.31 266.3 1306.16 266.292Z" stroke="#BFC7ED" stroke-opacity="0.8" stroke-width="2" stroke-miterlimit="10"/>
<path d="M1508.76 922.877L1411.18 892.329L1436.65 803.168L1535.27 831.895L1508.76 922.877Z" stroke="#BFC7ED" stroke-opacity="0.8" stroke-width="2" stroke-miterlimit="10"/>
<path d="M1535.27 831.895L1567.57 849.994L1545.74 924.959L1508.78 922.829L1535.27 831.895Z" stroke="#BFC7ED" stroke-opacity="0.8" stroke-width="2" stroke-miterlimit="10"/>
<path d="M1469.26 910.41L1448.9 904.023L1474.88 814.305L1495.37 820.273L1469.26 910.41Z" stroke="#BFC7ED" stroke-opacity="0.8" stroke-width="2" stroke-miterlimit="10"/>
<path d="M1535.09 924.196L1524 923.593L1548.55 839.316L1558.24 844.716L1535.09 924.196Z" stroke="#BFC7ED" stroke-opacity="0.8" stroke-width="2" stroke-miterlimit="10"/>
<path d="M1540.87 814.23L1435.68 783.59L1430.48 801.47L1535.66 832.109L1540.87 814.23Z" stroke="#BFC7ED" stroke-opacity="0.8" stroke-width="2" stroke-miterlimit="10"/>
<path d="M1571.67 852.198L1535.51 831.714L1540.86 814.228L1576.77 836.61L1571.67 852.198Z" stroke="#BFC7ED" stroke-opacity="0.8" stroke-width="2" stroke-miterlimit="10"/>
<path d="M1503.69 802.613L1484.18 796.93L1478.77 815.508L1498.28 821.191L1503.69 802.613Z" stroke="#BFC7ED" stroke-opacity="0.8" stroke-width="2" stroke-miterlimit="10"/>
<path d="M1562.23 846.814L1552.85 841.556L1558.07 825.042L1566.97 830.717L1562.23 846.814Z" stroke="#BFC7ED" stroke-opacity="0.8" stroke-width="2" stroke-miterlimit="10"/>
<path d="M1470.93 749.134C1461.76 750.452 1457.11 755.311 1457.04 766.809C1457.45 773.392 1466.86 792.4 1483.07 796.061C1472.09 781.748 1475.22 760.434 1484.86 762.182C1484.82 750.704 1470.93 749.134 1470.93 749.134Z" stroke="#BFC7ED" stroke-opacity="0.8" stroke-width="2" stroke-miterlimit="10"/>
<path d="M1457.7 770.094C1458.29 762.183 1462.73 753.172 1469.8 754.574C1476.86 755.977 1485.33 761.07 1492.27 778.699C1496.84 790.387 1494.68 802.687 1500.72 801.519C1507.4 773.408 1505.7 758.617 1493.97 744.24C1489.96 739.283 1481.95 736.444 1471.32 739.813C1468.45 740.645 1466.43 741.673 1463.82 743.186C1451 750.614 1457.7 770.094 1457.7 770.094Z" stroke="#BFC7ED" stroke-opacity="0.8" stroke-width="2" stroke-miterlimit="10"/>
<path d="M1551.97 767.788C1549.58 781.539 1534.83 786.585 1520.32 794.078C1512.71 798.023 1508.1 802.742 1508.1 802.742C1506.17 800.007 1507.97 798.511 1509.37 795.94C1526.71 781.341 1532.14 768.778 1528.76 764.411C1532.72 757.583 1552.65 752.276 1551.97 767.788Z" stroke="#BFC7ED" stroke-opacity="0.8" stroke-width="2" stroke-miterlimit="10"/>
<path d="M1500.5 800.59C1504.17 768.573 1509.23 753.983 1517.09 745.563C1525.55 736.461 1531.83 735.514 1540.52 743.499C1554.34 756.214 1553.91 761.848 1551.98 767.8C1551.04 760.101 1544.28 758.687 1539.27 760.613C1534.27 762.539 1522.56 770.293 1515.53 784.559C1513.18 789.484 1508.76 798.601 1508.09 802.801C1505.83 802.749 1500.33 802.054 1500.5 800.59Z" stroke="#BFC7ED" stroke-opacity="0.8" stroke-width="2" stroke-miterlimit="10"/>
<path d="M1553.7 792.35C1554.49 800.055 1549.32 812.945 1525.33 808.785C1534.72 818.492 1566.78 822.881 1570.87 813.516C1576.3 801.66 1570.73 796.855 1564.5 793.272C1558.22 789.675 1553.7 792.35 1553.7 792.35Z" stroke="#BFC7ED" stroke-opacity="0.8" stroke-width="2" stroke-miterlimit="10"/>
<path d="M1508.25 802.79C1525.56 786.212 1551.69 770.539 1565.23 774.686C1572.5 776.801 1576.66 807.413 1570.82 813.592C1573.25 803.339 1568.27 798.403 1559.67 796.201C1551.06 794.044 1528.18 805.111 1518.29 805.767C1510.19 805.325 1508.25 802.79 1508.25 802.79Z" stroke="#BFC7ED" stroke-opacity="0.8" stroke-width="2" stroke-miterlimit="10"/>
<path d="M1497.5 800.633C1492.6 796.324 1480.1 791.723 1473.3 793.733C1465.57 795.119 1440 809.543 1431.71 819.806C1445.02 809.842 1463.87 822.809 1458.83 840.437C1468.59 823.78 1496.04 801.671 1497.5 800.633Z" stroke="#BFC7ED" stroke-opacity="0.8" stroke-width="2" stroke-miterlimit="10"/>
<path d="M1505.72 802.601C1518.62 817.27 1523.6 834.682 1523.31 850.409C1522.68 870.784 1511.35 879.858 1508.22 884.858C1543.72 858.375 1535.37 892.766 1535.37 892.766C1550.19 874.503 1553.98 852.472 1545.49 834.089C1537.01 815.706 1529.28 808.758 1524.91 805.717C1520.51 802.617 1509.44 801.614 1505.72 802.601Z" stroke="#BFC7ED" stroke-opacity="0.8" stroke-width="2" stroke-miterlimit="10"/>
<path d="M123.441 882.203L60.9031 801.305L132.816 742.766L197.244 822.764L123.441 882.203Z" stroke="#BFC7ED" stroke-opacity="0.8" stroke-width="2" stroke-miterlimit="10"/>
<path d="M197.242 822.762L213.378 856.095L152.567 905.07L123.476 882.17L197.242 822.762Z" stroke="#BFC7ED" stroke-opacity="0.8" stroke-width="2" stroke-miterlimit="10"/>
<path d="M98.1825 849.371L85.138 832.478L157.793 773.777L171.177 790.396L98.1825 849.371Z" stroke="#BFC7ED" stroke-opacity="0.8" stroke-width="2" stroke-miterlimit="10"/>
<path d="M144.273 898.357L135.526 891.516L203.891 836.457L208.748 846.431L144.273 898.357Z" stroke="#BFC7ED" stroke-opacity="0.8" stroke-width="2" stroke-miterlimit="10"/>
<path d="M211.948 811.48L143.23 726.156L128.727 737.837L197.444 823.161L211.948 811.48Z" stroke="#BFC7ED" stroke-opacity="0.8" stroke-width="2" stroke-miterlimit="10"/>
<path d="M215.482 860.25L197.553 822.757L211.945 811.478L228.583 850.384L215.482 860.25Z" stroke="#BFC7ED" stroke-opacity="0.8" stroke-width="2" stroke-miterlimit="10"/>
<path d="M188.117 780.681L175.371 764.855L160.301 776.993L173.046 792.819L188.117 780.681Z" stroke="#BFC7ED" stroke-opacity="0.8" stroke-width="2" stroke-miterlimit="10"/>
<path d="M210.819 850.43L206.137 840.75L219.864 830.193L223.918 839.942L210.819 850.43Z" stroke="#BFC7ED" stroke-opacity="0.8" stroke-width="2" stroke-miterlimit="10"/>
<path d="M191.855 718.07C183.578 713.901 176.985 715.226 170.351 724.616C166.916 730.247 163.758 751.223 174.954 763.501C174.138 745.478 188.901 729.789 195.809 736.743C202.345 727.307 191.855 718.07 191.855 718.07Z" stroke="#BFC7ED" stroke-opacity="0.8" stroke-width="2" stroke-miterlimit="10"/>
<path d="M169.01 727.689C174.019 721.538 182.819 716.692 187.812 721.887C192.805 727.082 196.834 736.104 192.433 754.531C189.496 766.735 180.679 775.58 186.307 778.083C207.868 758.851 214.937 745.747 213.551 727.249C213.099 720.888 208.153 713.974 197.508 710.653C194.68 709.693 192.437 709.382 189.429 709.127C174.664 707.88 169.01 727.689 169.01 727.689Z" stroke="#BFC7ED" stroke-opacity="0.8" stroke-width="2" stroke-miterlimit="10"/>
<path d="M247.634 779.754C237.805 789.663 222.818 785.357 206.632 783.198C198.131 782.075 191.651 783.308 191.651 783.308C191.633 779.96 193.965 779.763 196.589 778.459C219.16 776.409 230.801 769.213 230.533 763.7C237.687 760.367 257.069 767.423 247.634 779.754Z" stroke="#BFC7ED" stroke-opacity="0.8" stroke-width="2" stroke-miterlimit="10"/>
<path d="M186.657 777.193C207.989 753.038 220.487 743.969 231.749 741.561C243.897 738.939 249.594 741.761 252.147 753.28C256.206 771.618 252.63 775.993 247.636 779.766C251.271 772.915 246.536 767.886 241.329 766.6C236.121 765.314 222.086 764.974 208.152 772.646C203.412 775.343 194.566 780.287 191.615 783.349C189.793 782.015 185.676 778.294 186.657 777.193Z" stroke="#BFC7ED" stroke-opacity="0.8" stroke-width="2" stroke-miterlimit="10"/>
<path d="M234.995 800.882C231.23 807.651 219.614 815.262 202.319 798.118C204.469 811.457 228.247 833.404 236.962 828.066C248.196 821.448 246.377 814.319 243.319 807.816C240.23 801.274 234.995 800.882 234.995 800.882Z" stroke="#BFC7ED" stroke-opacity="0.8" stroke-width="2" stroke-miterlimit="10"/>
<path d="M191.748 783.426C215.427 779.736 245.828 781.84 254.56 792.991C259.305 798.883 245.201 826.37 236.876 828.094C244.737 821.077 243.48 814.181 237.687 807.452C231.856 800.753 206.765 796.737 198.281 791.615C191.887 786.614 191.748 783.426 191.748 783.426Z" stroke="#BFC7ED" stroke-opacity="0.8" stroke-width="2" stroke-miterlimit="10"/>
<path d="M184.169 775.51C182.61 769.168 174.993 758.241 168.268 755.999C161.137 752.712 131.915 749.907 119.241 753.576C135.857 753.022 143.894 774.445 129.678 786.019C147.208 777.941 182.374 775.524 184.169 775.51Z" stroke="#BFC7ED" stroke-opacity="0.8" stroke-width="2" stroke-miterlimit="10"/>
<path d="M189.783 781.829C191.967 801.242 186.085 818.371 176.848 831.102C164.67 847.449 150.184 848.405 144.761 850.718C189.026 849.316 162.495 872.738 162.495 872.738C185.098 866.241 200.815 850.345 204.378 830.414C207.941 810.483 205.582 800.364 203.741 795.371C201.906 790.31 193.4 783.15 189.783 781.829Z" stroke="#BFC7ED" stroke-opacity="0.8" stroke-width="2" stroke-miterlimit="10"/>
<path d="M686.47 289.082C634.318 294.98 635.448 348.021 642.802 372.822C631.933 349.348 599.976 307.943 556.935 337.979C555.071 333.799 555.772 318.942 573.493 292.948C566.791 288.87 540.208 286.725 519.885 298.533C515.363 287.313 519.475 256.977 539.702 237.621C522.824 233.938 510.7 233.442 478.392 253.086C469.586 231.831 469.599 190.808 536.858 156.693L531.046 141.297L577.055 123.929L582.914 139.451C655.059 121.239 681.928 151.807 689.323 173.463C649.004 178.675 643.322 188.452 633.088 202.37C661.06 203.531 686.553 226.441 690.573 237.85C667.517 242.417 646.621 258.736 644.286 266.225C674.763 274.024 685.108 284.712 686.47 289.082Z" stroke="#BFC7ED" stroke-opacity="0.8" stroke-width="2"/>
<path d="M241.462 509.826C212.986 553.914 254.742 586.642 278.591 596.664C253.542 590.202 201.26 588.698 197.233 641.029C192.818 639.823 181.766 629.868 172.881 599.689C165.48 602.291 146.98 621.501 143.241 644.706C131.695 641.097 110.828 618.697 108.666 590.785C95.1236 601.51 87.0592 610.577 81.791 648.019C59.7665 641.368 28.0339 615.369 44.2472 541.716L28.653 536.46L44.3624 489.858L60.0834 495.158C91.6973 427.799 132.37 426.376 153.811 434.373C132.302 468.871 136.266 479.461 140.551 496.197C159.171 475.29 193.047 470.078 204.422 474.196C193.349 494.928 192.738 521.434 197.052 527.986C222.395 509.345 237.218 508.112 241.462 509.826Z" stroke="#BFC7ED" stroke-opacity="0.8" stroke-width="2"/>
<path d="M1343.19 1019.91C1394.95 1011.22 1390.97 958.315 1382.3 933.944C1394.41 956.801 1428.55 996.43 1469.91 964.126C1472 968.2 1472.1 983.074 1455.8 1009.98C1462.71 1013.69 1489.37 1014.41 1509.03 1001.53C1514.14 1012.49 1511.67 1043 1492.51 1063.41C1509.56 1066.18 1521.69 1066.03 1552.9 1044.68C1562.83 1065.43 1565.02 1106.39 1499.7 1144.07L1506.33 1159.13L1461.31 1178.95L1454.63 1163.76C1383.57 1185.82 1355.1 1156.74 1346.55 1135.51C1386.53 1128.14 1391.68 1118.08 1401.15 1103.63C1373.16 1103.97 1346.47 1082.46 1341.84 1071.29C1364.62 1065.49 1384.61 1048.07 1386.54 1040.47C1355.69 1034.32 1344.78 1024.2 1343.19 1019.91Z" stroke="#BFC7ED" stroke-opacity="0.8" stroke-width="2"/>
<path d="M1446.56 517.163C1427.67 468.196 1376.64 482.698 1354.5 496.084C1374.47 479.633 1406.45 438.247 1366.51 404.197C1370.08 401.337 1384.63 398.259 1414.26 408.833C1416.51 401.319 1411.87 375.056 1395.3 358.379C1405.02 351.167 1435.41 347.476 1459.25 362.153C1458.54 344.892 1455.96 333.036 1428.78 306.744C1447.12 292.851 1486.82 282.492 1536.83 338.942L1550.25 329.427L1578.69 369.551L1565.15 379.143C1601.01 444.341 1578.23 478.064 1559.15 490.694C1543.91 453.003 1533.01 449.976 1516.96 443.593C1522.91 470.95 1507.19 501.407 1497.17 508.181C1486.92 487.028 1465.85 470.937 1458.01 470.57C1458.17 502.03 1450.44 514.74 1446.56 517.163Z" stroke="#BFC7ED" stroke-opacity="0.8" stroke-width="2"/>
<path d="M1109.55 242.768C1065.87 213.663 1032.55 254.945 1022.19 278.647C1029.01 253.694 1031.26 201.439 978.992 196.662C980.261 192.265 990.373 181.357 1020.68 172.905C1018.18 165.468 999.239 146.694 976.089 142.623C979.864 131.13 1002.56 110.586 1030.5 108.824C1019.97 95.1299 1011.02 86.9362 973.658 81.1317C980.624 59.2048 1007.08 27.8483 1080.49 45.1161L1085.97 29.5988L1132.34 45.9749L1126.81 61.6183C1193.71 94.1948 1194.55 134.884 1186.25 156.208C1152.06 134.206 1141.42 138.019 1124.62 142.063C1145.26 160.98 1149.98 194.928 1145.7 206.242C1125.13 194.873 1098.64 193.882 1092.03 198.102C1110.3 223.71 1111.32 238.549 1109.55 242.768Z" stroke="#BFC7ED" stroke-opacity="0.8" stroke-width="2"/>
<path d="M464.832 979.463C508.508 1008.57 541.831 967.286 552.193 943.583C545.373 968.537 543.12 1020.79 595.387 1025.57C594.118 1029.97 584.006 1040.87 553.702 1049.33C556.198 1056.76 575.14 1075.54 598.289 1079.61C594.515 1091.1 571.819 1111.64 543.878 1113.41C554.408 1127.1 563.359 1135.29 600.721 1141.1C593.755 1163.03 567.304 1194.38 493.891 1177.11L488.411 1192.63L442.04 1176.26L447.564 1160.61C380.666 1128.04 379.826 1087.35 388.13 1066.02C422.316 1088.02 432.962 1084.21 449.757 1080.17C429.119 1061.25 424.394 1027.3 428.674 1015.99C449.246 1027.36 475.74 1028.35 482.353 1024.13C464.077 998.521 463.057 983.681 464.832 979.463Z" stroke="#BFC7ED" stroke-opacity="0.8" stroke-width="2"/>
<circle cx="817.085" cy="207.251" r="64.2654" transform="rotate(37.5352 817.085 207.251)" stroke="#BFC7ED" stroke-opacity="0.8" stroke-width="2"/>
<ellipse cx="857.115" cy="206.562" rx="15.7707" ry="24.4445" transform="rotate(6.12608 857.115 206.562)" stroke="#BFC7ED" stroke-opacity="0.8" stroke-width="2"/>
<path d="M858.157 162.208L861.592 157.737C862.458 156.61 862.201 154.987 861.028 154.183L852.141 148.091C851.037 147.334 849.531 147.591 848.74 148.671L845.278 153.401C845.059 153.699 844.904 154.046 844.858 154.413C843.884 162.07 853.118 166.074 857.765 162.605C857.914 162.493 858.043 162.356 858.157 162.208Z" stroke="#BFC7ED" stroke-opacity="0.8" stroke-width="2"/>
<ellipse cx="856.934" cy="150.858" rx="7.88533" ry="5.51973" transform="rotate(-142.465 856.934 150.858)" stroke="#BFC7ED" stroke-opacity="0.8" stroke-width="2"/>
<circle cx="757.275" cy="1024.98" r="64.2654" transform="rotate(-142.465 757.275 1024.98)" stroke="#BFC7ED" stroke-opacity="0.8" stroke-width="2"/>
<ellipse cx="717.244" cy="1025.67" rx="15.7707" ry="24.4445" transform="rotate(-173.874 717.244 1025.67)" stroke="#BFC7ED" stroke-opacity="0.8" stroke-width="2"/>
<path d="M716.202 1070.02L712.767 1074.49C711.901 1075.62 712.158 1077.24 713.331 1078.05L722.218 1084.14C723.323 1084.9 724.828 1084.64 725.619 1083.56L729.081 1078.83C729.3 1078.53 729.455 1078.18 729.502 1077.82C730.475 1070.16 721.241 1066.16 716.594 1069.63C716.445 1069.74 716.316 1069.87 716.202 1070.02Z" stroke="#BFC7ED" stroke-opacity="0.8" stroke-width="2"/>
<ellipse cx="717.425" cy="1081.37" rx="7.88533" ry="5.51973" transform="rotate(37.5352 717.425 1081.37)" stroke="#BFC7ED" stroke-opacity="0.8" stroke-width="2"/>
<circle cx="1314.72" cy="1180.26" r="64.2654" transform="rotate(-38.7345 1314.72 1180.26)" stroke="#BFC7ED" stroke-opacity="0.8" stroke-width="2"/>
<ellipse cx="1323.56" cy="1141.21" rx="15.7707" ry="24.4445" transform="rotate(-70.1437 1323.56 1141.21)" stroke="#BFC7ED" stroke-opacity="0.8" stroke-width="2"/>
<path d="M1280.71 1129.67L1277.19 1125.27C1276.3 1124.16 1274.66 1124.03 1273.6 1124.97L1265.57 1132.16C1264.57 1133.05 1264.47 1134.58 1265.33 1135.6L1269.1 1140.09C1269.34 1140.37 1269.64 1140.6 1269.98 1140.74C1277.19 1143.5 1283.27 1135.48 1281.01 1130.14C1280.93 1129.97 1280.83 1129.81 1280.71 1129.67Z" stroke="#BFC7ED" stroke-opacity="0.8" stroke-width="2"/>
<ellipse cx="1269.4" cy="1128.16" rx="7.88533" ry="5.51973" transform="rotate(141.265 1269.4 1128.16)" stroke="#BFC7ED" stroke-opacity="0.8" stroke-width="2"/>
<circle cx="1486.64" cy="627.526" r="64.2654" transform="rotate(-29.5794 1486.64 627.526)" stroke="#BFC7ED" stroke-opacity="0.8" stroke-width="2"/>
<ellipse cx="1501.58" cy="590.376" rx="15.7707" ry="24.4445" transform="rotate(-60.9885 1501.58 590.376)" stroke="#BFC7ED" stroke-opacity="0.8" stroke-width="2"/>
<path d="M1461.12 572.171L1458.34 567.268C1457.63 566.031 1456.04 565.637 1454.84 566.405L1445.77 572.224C1444.65 572.947 1444.3 574.434 1444.99 575.582L1448 580.611C1448.19 580.929 1448.44 581.206 1448.76 581.392C1455.44 585.267 1462.72 578.317 1461.33 572.687C1461.29 572.506 1461.21 572.333 1461.12 572.171Z" stroke="#BFC7ED" stroke-opacity="0.8" stroke-width="2"/>
<ellipse cx="1450.19" cy="568.885" rx="7.88533" ry="5.51973" transform="rotate(150.421 1450.19 568.885)" stroke="#BFC7ED" stroke-opacity="0.8" stroke-width="2"/>
<path d="M408.411 286.58L321.486 340.427L270.688 262.852L356.913 207.031L408.411 286.58Z" stroke="#BFC7ED" stroke-opacity="0.8" stroke-width="2" stroke-miterlimit="10"/>
<path d="M356.91 207.027L391.732 194.421L434.164 259.965L408.382 286.535L356.91 207.027Z" stroke="#BFC7ED" stroke-opacity="0.8" stroke-width="2" stroke-miterlimit="10"/>
<path d="M373.149 308.311L354.999 319.541L304.117 241.211L322.03 229.615L373.149 308.311Z" stroke="#BFC7ED" stroke-opacity="0.8" stroke-width="2" stroke-miterlimit="10"/>
<path d="M426.626 267.524L418.918 275.518L371.215 201.832L381.637 198.031L426.626 267.524Z" stroke="#BFC7ED" stroke-opacity="0.8" stroke-width="2" stroke-miterlimit="10"/>
<path d="M347.211 191.237L255.246 250.773L265.366 266.406L357.332 206.87L347.211 191.237Z" stroke="#BFC7ED" stroke-opacity="0.8" stroke-width="2" stroke-miterlimit="10"/>
<path d="M396.081 192.763L356.936 206.723L347.204 191.243L387.62 178.713L396.081 192.763Z" stroke="#BFC7ED" stroke-opacity="0.8" stroke-width="2" stroke-miterlimit="10"/>
<path d="M314.112 211.766L297.055 222.809L307.57 239.052L324.628 228.009L314.112 211.766Z" stroke="#BFC7ED" stroke-opacity="0.8" stroke-width="2" stroke-miterlimit="10"/>
<path d="M385.833 196.38L375.721 200.038L366.638 185.293L376.754 182.268L385.833 196.38Z" stroke="#BFC7ED" stroke-opacity="0.8" stroke-width="2" stroke-miterlimit="10"/>
<path d="M252.22 201.58C247.218 209.382 247.855 216.076 256.51 223.645C261.756 227.643 282.293 232.951 295.662 223.083C277.651 222.033 263.571 205.728 271.201 199.575C262.49 192.1 252.22 201.58 252.22 201.58Z" stroke="#BFC7ED" stroke-opacity="0.8" stroke-width="2" stroke-miterlimit="10"/>
<path d="M259.43 225.297C253.829 219.68 249.918 210.426 255.601 205.996C261.283 201.566 270.674 198.491 288.547 204.772C300.382 208.954 308.269 218.638 311.341 213.298C294.438 189.866 282.135 181.481 263.592 180.949C257.219 180.742 249.831 184.947 245.429 195.192C244.182 197.906 243.641 200.105 243.076 203.07C240.311 217.628 259.43 225.297 259.43 225.297Z" stroke="#BFC7ED" stroke-opacity="0.8" stroke-width="2" stroke-miterlimit="10"/>
<path d="M319.332 152.467C328.172 163.267 322.341 177.73 318.522 193.605C316.526 201.945 317.084 208.517 317.084 208.517C313.752 208.19 313.797 205.85 312.771 203.105C313.063 180.443 307.109 168.122 301.597 167.819C299.021 160.358 308.041 141.809 319.332 152.467Z" stroke="#BFC7ED" stroke-opacity="0.8" stroke-width="2" stroke-miterlimit="10"/>
<path d="M310.492 212.857C288.669 189.143 280.94 175.776 279.708 164.325C278.355 151.971 281.75 146.596 293.471 145.247C312.131 143.104 316.112 147.113 319.349 152.47C312.91 148.146 307.419 152.336 305.603 157.383C303.786 162.43 301.998 176.355 308.19 191.007C310.382 196 314.387 205.309 317.127 208.561C315.612 210.236 311.486 213.947 310.492 212.857Z" stroke="#BFC7ED" stroke-opacity="0.8" stroke-width="2" stroke-miterlimit="10"/>
<path d="M339.048 167.223C345.391 171.666 351.762 184.007 332.924 199.438C346.413 198.678 370.699 177.294 366.29 168.074C360.867 156.217 353.589 157.289 346.804 159.66C339.978 162.056 339.048 167.223 339.048 167.223Z" stroke="#BFC7ED" stroke-opacity="0.8" stroke-width="2" stroke-miterlimit="10"/>
<path d="M317.216 208.436C315.991 184.502 321.225 154.481 333.218 146.948C339.569 142.837 365.451 159.704 366.306 168.164C360.139 159.619 353.15 160.157 345.858 165.225C338.593 170.333 332.007 194.874 326.035 202.784C320.401 208.627 317.216 208.436 317.216 208.436Z" stroke="#BFC7ED" stroke-opacity="0.8" stroke-width="2" stroke-miterlimit="10"/>
<path d="M308.563 215.154C302.094 216.049 290.438 222.496 287.513 228.954C283.508 235.707 277.699 264.483 280.039 277.469C281.204 260.885 303.343 255.103 313.387 270.439C307.163 252.168 308.391 216.941 308.563 215.154Z" stroke="#BFC7ED" stroke-opacity="0.8" stroke-width="2" stroke-miterlimit="10"/>
<path d="M315.42 210.228C334.954 210.061 351.384 217.681 363.093 228.183C378.094 241.985 377.549 256.492 379.289 262.125C382.467 217.952 403.024 246.76 403.024 246.76C398.896 223.608 384.709 206.333 365.252 200.73C345.796 195.128 335.487 196.428 330.331 197.744C325.108 199.046 317.107 206.767 315.42 210.228Z" stroke="#BFC7ED" stroke-opacity="0.8" stroke-width="2" stroke-miterlimit="10"/>
<circle cx="182.79" cy="319.798" r="64.2654" transform="rotate(126.121 182.79 319.798)" stroke="#BFC7ED" stroke-opacity="0.8" stroke-width="2"/>
<ellipse cx="184.464" cy="359.799" rx="15.7707" ry="24.4445" transform="rotate(94.7117 184.464 359.799)" stroke="#BFC7ED" stroke-opacity="0.8" stroke-width="2"/>
<path d="M228.833 359.743L233.387 363.067C234.535 363.905 236.151 363.607 236.926 362.415L242.797 353.38C243.526 352.258 243.232 350.759 242.133 349.995L237.32 346.65C237.016 346.439 236.666 346.293 236.298 346.255C228.618 345.471 224.844 354.801 228.427 359.361C228.542 359.507 228.682 359.633 228.833 359.743Z" stroke="#BFC7ED" stroke-opacity="0.8" stroke-width="2"/>
<ellipse cx="240.15" cy="358.244" rx="7.88533" ry="5.51973" transform="rotate(-53.8792 240.15 358.244)" stroke="#BFC7ED" stroke-opacity="0.8" stroke-width="2"/>
<circle cx="222.595" cy="985.194" r="64.2654" transform="rotate(49.5697 222.595 985.194)" stroke="#BFC7ED" stroke-opacity="0.8" stroke-width="2"/>
<ellipse cx="261.89" cy="992.869" rx="15.7707" ry="24.4445" transform="rotate(18.1605 261.89 992.869)" stroke="#BFC7ED" stroke-opacity="0.8" stroke-width="2"/>
<path d="M272.157 949.703L276.449 946.046C277.531 945.125 277.618 943.484 276.639 942.453L269.217 934.642C268.295 933.671 266.768 933.609 265.77 934.5L261.397 938.404C261.121 938.65 260.898 938.956 260.776 939.306C258.227 946.592 266.423 952.433 271.691 950.009C271.86 949.931 272.015 949.824 272.157 949.703Z" stroke="#BFC7ED" stroke-opacity="0.8" stroke-width="2"/>
<ellipse cx="273.33" cy="938.348" rx="7.88533" ry="5.51973" transform="rotate(-130.43 273.33 938.348)" stroke="#BFC7ED" stroke-opacity="0.8" stroke-width="2"/>
</svg>
