<svg width="20" height="20" viewBox="0 0 20 20" fill="none" xmlns="http://www.w3.org/2000/svg">
<g id="bi:check2-circle">
<g id="Group">
<path id="Vector" d="M3.12501 10.0011C3.12482 8.79415 3.44235 7.60846 4.04568 6.56318C4.64901 5.5179 5.51688 4.64986 6.56205 4.04632C7.60721 3.44279 8.79284 3.12503 9.99974 3.12498C11.2066 3.12493 12.3923 3.4426 13.4375 4.04606C13.581 4.12763 13.7509 4.14914 13.9102 4.1059C14.0695 4.06266 14.2052 3.95817 14.2877 3.81524C14.3702 3.67231 14.3928 3.50254 14.3507 3.34298C14.3085 3.18342 14.2049 3.04702 14.0625 2.96355C12.5136 2.06928 10.7129 1.71108 8.93962 1.9445C7.16637 2.17793 5.51969 2.98993 4.25495 4.25458C2.99022 5.51924 2.17811 7.16587 1.94457 8.9391C1.71104 10.7123 2.06912 12.5131 2.96329 14.0621C3.85747 15.611 5.23776 16.8217 6.89011 17.5063C8.54245 18.1909 10.3745 18.3111 12.1022 17.8484C13.8298 17.3856 15.3565 16.3658 16.4455 14.9469C17.5344 13.5281 18.1248 11.7896 18.125 10.0011C18.125 9.8353 18.0592 9.67632 17.942 9.55911C17.8247 9.4419 17.6658 9.37606 17.5 9.37606C17.3343 9.37606 17.1753 9.4419 17.0581 9.55911C16.9409 9.67632 16.875 9.8353 16.875 10.0011C16.875 11.8244 16.1507 13.5731 14.8614 14.8624C13.5721 16.1517 11.8234 16.8761 10 16.8761C8.17665 16.8761 6.42796 16.1517 5.13865 14.8624C3.84934 13.5731 3.12501 11.8244 3.12501 10.0011Z" fill="#23C461"/>
<path id="Vector_2" d="M19.1933 4.19329C19.2514 4.13518 19.2975 4.06619 19.3289 3.99027C19.3604 3.91434 19.3766 3.83297 19.3766 3.75079C19.3766 3.66861 19.3604 3.58723 19.3289 3.51131C19.2975 3.43539 19.2514 3.3664 19.1933 3.30829C19.1352 3.25018 19.0662 3.20408 18.9903 3.17264C18.9143 3.14119 18.833 3.125 18.7508 3.125C18.6686 3.125 18.5872 3.14119 18.5113 3.17264C18.4354 3.20408 18.3664 3.25018 18.3083 3.30829L10.0008 11.617L6.69329 8.30829C6.63518 8.25018 6.56619 8.20408 6.49027 8.17264C6.41435 8.14119 6.33297 8.125 6.25079 8.125C6.16861 8.125 6.08723 8.14119 6.01131 8.17264C5.93539 8.20408 5.8664 8.25018 5.80829 8.30829C5.75018 8.3664 5.70408 8.43539 5.67264 8.51131C5.64119 8.58723 5.625 8.66861 5.625 8.75079C5.625 8.83297 5.64119 8.91434 5.67264 8.99027C5.70408 9.06619 5.75018 9.13518 5.80829 9.19329L9.55829 12.9433C9.61635 13.0015 9.68532 13.0477 9.76125 13.0792C9.83718 13.1107 9.91858 13.1269 10.0008 13.1269C10.083 13.1269 10.1644 13.1107 10.2403 13.0792C10.3163 13.0477 10.3852 13.0015 10.4433 12.9433L19.1933 4.19329Z" fill="#23C461"/>
</g>
</g>
</svg>
